<svg width="53" height="40" viewBox="0 0 53 40" fill="none" xmlns="http://www.w3.org/2000/svg">
<path d="M44.5118 3.37828C44.4972 3.35 44.473 3.32785 44.4436 3.31578C41.0397 1.75404 37.4477 0.640405 33.7573 0.00273159C33.7238 -0.00350155 33.6891 0.000995109 33.6583 0.015582C33.6275 0.030169 33.6021 0.0541035 33.5856 0.0839818C33.0965 0.971742 32.6525 1.88362 32.2553 2.81613C28.2773 2.21228 24.2309 2.21228 20.2529 2.81613C19.8531 1.88125 19.4019 0.969147 18.9016 0.0839818C18.8844 0.0547528 18.8588 0.0313695 18.8282 0.0168773C18.7976 0.00238516 18.7633 -0.00254417 18.7298 0.00273159C15.039 0.639066 11.4467 1.75279 8.04331 3.31587C8.01418 3.32822 7.9896 3.34931 7.97296 3.37622C1.16678 13.5404 -0.697693 23.4546 0.216953 33.246C0.219526 33.27 0.226898 33.2933 0.238632 33.3144C0.250366 33.3355 0.266222 33.354 0.285256 33.3688C4.24843 36.3032 8.68129 38.5431 13.3947 39.9928C13.4279 40.0028 13.4633 40.0024 13.4962 39.9916C13.5292 39.9808 13.558 39.9602 13.5789 39.9325C14.5912 38.5551 15.4882 37.0965 16.2607 35.5716C16.2714 35.5507 16.2774 35.5277 16.2785 35.5043C16.2796 35.4808 16.2758 35.4574 16.2672 35.4356C16.2586 35.4138 16.2454 35.394 16.2287 35.3776C16.2119 35.3612 16.1918 35.3486 16.1698 35.3405C14.7553 34.7993 13.3859 34.1469 12.0744 33.3893C12.0506 33.3753 12.0306 33.3557 12.0161 33.3321C12.0017 33.3085 11.9933 33.2818 11.9917 33.2542C11.99 33.2266 11.9952 33.199 12.0068 33.1739C12.0183 33.1488 12.0359 33.127 12.0579 33.1102C12.3331 32.9041 12.6084 32.6896 12.8712 32.473C12.8945 32.4538 12.9228 32.4414 12.9528 32.4374C12.9827 32.4334 13.0132 32.4378 13.0408 32.4501C21.6327 36.3713 30.9346 36.3713 39.4248 32.4501C39.4525 32.437 39.4833 32.432 39.5137 32.4356C39.5442 32.4393 39.5729 32.4516 39.5966 32.4709C39.8595 32.6876 40.1347 32.9041 40.412 33.1102C40.4341 33.1268 40.4518 33.1485 40.4635 33.1735C40.4753 33.1985 40.4806 33.2261 40.4792 33.2537C40.4778 33.2812 40.4696 33.308 40.4553 33.3317C40.4411 33.3554 40.4212 33.3752 40.3975 33.3893C39.089 34.1532 37.7184 34.8053 36.3002 35.3385C36.2782 35.3468 36.2582 35.3598 36.2415 35.3764C36.2248 35.3931 36.2118 35.413 36.2034 35.435C36.195 35.4571 36.1913 35.4806 36.1926 35.5041C36.1939 35.5276 36.2001 35.5506 36.2109 35.5716C36.9964 37.088 37.8921 38.5447 38.8907 39.9301C38.911 39.9585 38.9397 39.9798 38.9727 39.991C39.0058 40.0023 39.0415 40.0028 39.0749 39.9926C43.7967 38.5478 48.2374 36.3077 52.2055 33.3688C52.2248 33.3547 52.2409 33.3366 52.2527 33.3158C52.2645 33.295 52.2717 33.2719 52.2738 33.2481C53.3688 21.9282 50.4406 12.0952 44.5118 3.37828ZM17.5439 27.2841C14.9571 27.2841 12.8256 24.9102 12.8256 21.9948C12.8256 19.0795 14.9157 16.7055 17.5439 16.7055C20.1925 16.7055 22.3034 19.1001 22.262 21.9947C22.262 24.9102 20.1718 27.2841 17.5439 27.2841ZM34.9886 27.2841C32.4019 27.2841 30.2704 24.9102 30.2704 21.9948C30.2704 19.0795 32.3605 16.7055 34.9886 16.7055C37.6374 16.7055 39.7481 19.1001 39.7068 21.9947C39.7068 24.9102 37.6374 27.2841 34.9886 27.2841Z" fill="white"/>
</svg>
