<svg width="200" height="39" viewBox="0 0 200 39" fill="none" xmlns="http://www.w3.org/2000/svg">
<path d="M195.545 29.4309V7.05688H199.48V29.4634H195.545V29.4309Z" fill="white"/>
<path d="M187.057 29.4309V7.05688H190.992V29.4634H187.057V29.4309Z" fill="white"/>
<path d="M183.74 21.3659C183.74 26.7643 181.041 29.6586 176.065 29.6586C171.089 29.6586 168.39 26.7643 168.39 21.3659C168.39 15.9676 171.089 13.0732 176.065 13.0732C181.041 13.0732 183.74 15.9676 183.74 21.3659ZM180 21.3659C180 17.0082 178.537 16.1952 176.26 16.1952C173.984 16.1952 172.52 17.0082 172.52 21.3659C172.52 25.7236 173.984 26.5367 176.26 26.5367C178.341 26.5367 180 25.7236 180 21.3659Z" fill="white"/>
<path d="M166.732 13.0731V16.3902C164.65 16.3902 162.179 16.3902 162.179 17.4308V29.4633H158.244V15.1544C158.439 12.6503 166.732 13.0731 166.732 13.0731Z" fill="white"/>
<path d="M143.089 35.8699C146.016 28.6179 145.789 29.2358 146.016 28.6179L140.195 13.2683H144.358L148.098 24.4553L151.61 13.2683H155.772L149.561 29.8537L147.285 35.8699H143.089Z" fill="white"/>
<path d="M137.919 19.7073V29.4634H133.984V19.4797C133.984 18.0162 133.561 16.5853 130.049 16.5853C129.138 16.6179 128.228 16.7479 127.35 17.0081V29.4634H123.415V7.05688H127.35V13.4959C128.39 13.0406 129.528 12.8455 130.667 12.878C135.415 13.0731 137.919 15.5447 137.919 19.7073Z" fill="white"/>
<path d="M116.163 26.3414C117.594 26.2764 118.992 26.0162 120.325 25.4959V28.8129C118.797 29.4308 117.203 29.691 115.545 29.6259C110.569 29.6259 107.87 26.7316 107.87 21.3333C107.87 15.9349 110.569 12.8455 115.545 12.8455C117.171 12.9105 118.764 13.1707 120.325 13.691V17.0081C118.992 16.4877 117.594 16.2276 116.163 16.1951C113.463 16.1951 111.805 17.0081 111.805 21.1707C111.805 25.4959 113.463 26.3414 116.163 26.3414Z" fill="white"/>
<path d="M105.366 19.2845V29.4308H101.626V19.2845C101.626 17.8211 101.626 16.3902 98.3089 16.3902C97.2683 16.3902 95.187 16.5853 95.187 17.2032V29.4308H91.4471V15.9674C91.4471 13.2682 94.7642 12.8455 98.8943 12.8455C103.089 13.0731 105.366 14.7316 105.366 19.2845Z" fill="white"/>
<path d="M87.7398 13.2683V22.1789C87.7398 26.9594 86.0813 29.8537 80.4878 29.8537C74.8943 29.8537 73.4309 26.9594 73.4309 22.1789V13.2683H77.1707V22.6016C77.1707 25.3008 78.2114 26.1138 80.4878 26.1138C82.7642 26.1138 83.8049 25.3008 83.8049 22.6016V13.2683H87.7398Z" fill="white"/>
<path d="M70.3415 13.0731V16.3902C68.2602 16.3902 65.7886 16.3902 65.7886 17.4308V29.4633H61.8536V15.1544C62.0488 12.6503 70.3415 13.0731 70.3415 13.0731Z" fill="white"/>
<path d="M54.1464 26.3414C55.5122 26.3089 56.8456 26.0162 58.0813 25.4959V28.8129C56.5529 29.4308 54.9594 29.691 53.3008 29.6259C48.3252 29.6259 45.626 26.7316 45.626 21.3333C45.626 15.9349 48.3252 12.8455 53.3008 12.8455C54.9268 12.9105 56.5203 13.1707 58.0813 13.691V17.0081C56.813 16.5203 55.4797 16.2276 54.1464 16.1951C51.4472 16.1951 49.7886 17.0081 49.7886 21.1707C49.5935 25.4959 51.4797 26.3414 54.1464 26.3414Z" fill="white"/>
<path d="M5.04063 21.3657C5.04063 12.2926 12.3902 4.9755 21.4634 4.9755C30.0162 5.00802 37.1057 11.5771 37.7886 20.0975V19.0568C37.7886 8.74786 29.4309 0.390137 19.1219 0.390137C8.81298 0.390137 0.455261 8.78038 0.455261 19.0893C0.455261 29.3983 8.81298 37.7235 19.1219 37.7235H20.3577C11.7723 37.1381 5.07315 29.9836 5.04063 21.3657Z" fill="white"/>
<path d="M30.3089 22.1789C26.9918 22.1789 24.3252 19.5122 24.2927 16.2276C24.2927 13.6911 25.8536 11.4471 28.2276 10.5691C26.374 9.59349 24.3252 9.07316 22.2114 9.10569C14.9918 9.10569 9.13818 14.9593 9.13818 22.1789C9.13818 29.3984 14.9918 35.252 22.2114 35.252C29.4309 35.252 35.2845 29.3984 35.2845 22.1789C35.317 21.3333 35.252 20.5203 35.0894 19.6748C34.0813 21.3333 32.2276 22.2764 30.3089 22.1789Z" fill="white"/>
</svg>
