<svg width="200" height="27" viewBox="0 0 200 27" fill="none" xmlns="http://www.w3.org/2000/svg">
<g clip-path="url(#clip0_5_204)">
<path d="M25.2592 26.5155C24.3908 26.4332 23.5606 26.2721 22.7558 26.0299C19.7102 25.1132 17.5023 22.7306 16.6569 19.4485C16.2586 17.9021 16.2742 18.2895 16.2442 9.20363L16.2163 0.740665H17.96H19.7037V8.81766C19.7037 14.1191 19.7312 17.1417 19.7838 17.6136C20.086 20.323 21.7101 22.1663 24.5923 23.0708C26.0029 23.5135 27.1355 23.5337 28.5073 23.1406C30.9889 22.4296 32.467 20.8778 32.9581 18.4679C33.1074 17.7353 33.1111 17.5145 33.1111 9.22903V0.740665H34.9629H36.8148V9.04597C36.8148 18.0393 36.8133 18.0802 36.4066 19.5925C35.5114 22.9214 33.2141 25.2753 30.0418 26.1143C28.6044 26.4944 26.7112 26.6532 25.2592 26.5155ZM113.41 26.512C111.963 26.3727 110.523 25.9464 109.525 25.3621C108.851 24.9676 107.883 24.0721 107.463 23.4532C107.077 22.8856 106.641 21.9387 106.487 21.3333C106.268 20.4714 106.183 19.2015 106.281 18.2347C106.443 16.6291 106.889 15.5294 107.759 14.5892C108.852 13.4083 110.059 12.7218 112.041 12.1538C113.228 11.8134 114.163 11.6539 117.074 11.2944C120.945 10.8165 121.369 10.7528 121.83 10.5806C122.373 10.3774 122.818 9.93046 123.043 9.36339C123.195 8.97879 123.216 8.80036 123.217 7.88881C123.218 7.01147 123.192 6.76622 123.047 6.29622C122.532 4.63028 121.322 3.69901 119.255 3.37746C116.262 2.91176 113.707 3.45275 112.267 4.85734C111.455 5.6499 110.891 7.13955 110.889 8.49992L110.889 8.88881H109.074H107.259L107.261 8.72214C107.267 8.01577 107.565 6.48302 107.869 5.59251C108.569 3.54133 110.304 1.76433 112.39 0.959725C114.177 0.2705 116.532 -0.0311485 118.738 0.146368C121.707 0.385221 123.276 0.979896 124.704 2.40733C125.765 3.46879 126.267 4.37585 126.644 5.912C126.751 6.34881 126.771 7.31746 126.809 14.111C126.851 21.7357 126.853 21.8178 127.006 22.111C127.375 22.8169 128.277 22.9963 129.278 22.5627L129.555 22.4424V24.0639V25.6855L128.944 25.7872C128.194 25.912 126.547 25.9154 126.013 25.7931C125.105 25.5853 124.348 25.0119 123.964 24.2408C123.747 23.8051 123.559 23.0157 123.557 22.5308C123.556 22.3542 123.526 22.2209 123.491 22.2345C123.455 22.2481 123.228 22.5092 122.986 22.8147C121.635 24.5198 120.346 25.4743 118.646 26.0294C117.164 26.5129 115.251 26.6892 113.41 26.512L113.41 26.512ZM116.672 23.3623C119.469 22.8853 121.536 21.4199 122.593 19.1656C123.135 18.0079 123.203 17.5873 123.24 15.1296C123.258 13.9379 123.257 12.9629 123.238 12.9629C123.219 12.9629 123.058 13.027 122.88 13.1055C122.189 13.4094 120.376 13.759 117.482 14.1465C112.733 14.7823 110.482 15.8981 109.955 17.8777C109.82 18.3865 109.825 19.4946 109.965 20.0331C110.401 21.7074 111.919 23.0205 113.857 23.4009C114.415 23.5102 115.927 23.4895 116.672 23.3623H116.672ZM136.963 26.0712C134.746 25.8069 133.518 24.8788 133.075 23.1325C132.832 22.177 132.818 21.6054 132.816 12.7962L132.815 3.92585H130.667H128.518V2.37029V0.814739H134.963H141.407V2.37029V3.92585H138.889H136.37L136.373 12.2036C136.375 20.0655 136.399 21.1329 136.591 21.8463C136.775 22.5288 137.28 22.9132 138.16 23.0399C138.606 23.104 140.726 23.0205 141.204 22.92L141.407 22.877V24.4638V26.0506L140.062 26.0994C138.468 26.1571 137.619 26.1494 136.963 26.0712H136.963ZM0.0209983 16.8703C0.0511712 6.96556 0.0302107 7.45398 0.490638 5.92585C1.55411 2.39624 4.50323 0.401829 9.14057 0.0761419C10.5438 -0.0224064 12.501 0.0915167 13.6111 0.336358L13.7778 0.373117V2.06162V3.75012L13.0926 3.64634C12.6901 3.58538 11.7656 3.53915 10.8518 3.53429C9.4958 3.52708 9.19725 3.54743 8.52424 3.69291C6.20846 4.19348 4.75446 5.29766 4.06167 7.08181C3.71371 7.97791 3.62411 8.7288 3.64664 10.5598L3.66664 12.1851L7.87035 12.2042L12.0741 12.2234V13.8894V15.5555H7.88887H3.70368V20.7407V25.9259H1.84854H-0.0065918L0.0209959 16.8703H0.0209983ZM39.6296 13.3703V0.814739H41.443H43.2564L43.2763 2.45384L43.2963 4.09293L43.5526 3.69458C43.9154 3.13086 44.8969 2.17163 45.5862 1.70729C46.6775 0.972086 48.0413 0.429596 49.3647 0.204356C50.0386 0.0896535 52.056 0.0973957 52.9629 0.218164C56.5268 0.692755 58.8586 2.5768 59.665 5.63335C60.1122 7.32797 60.0956 6.92571 60.1261 16.8333L60.1541 25.9259H58.3771H56.6L56.5705 17.3888C56.5387 8.18892 56.5416 8.25952 56.1417 6.92585C55.6199 5.18601 54.4658 4.00218 52.7916 3.48968C51.6279 3.13347 49.8029 3.13045 48.532 3.48264C46.1806 4.13424 44.4162 5.97597 43.6672 8.56065C43.2577 9.9738 43.2598 9.92281 43.2595 18.2407L43.2593 25.9259H41.4445H39.6296V13.3703H39.6296ZM62.8148 13.3703V0.814739H64.6296H66.4444V13.3703V25.9259H64.6296H62.8148V13.3703ZM69.4815 13.3703V0.814739H71.1468H72.8121L72.8319 2.53123L72.8518 4.24772L73.2668 3.6979C74.6074 1.9219 76.1414 0.85588 77.9984 0.409759C80.3535 -0.155998 82.7347 0.0556727 84.6372 0.999903C85.9623 1.65758 86.8564 2.51089 87.4837 3.71661C87.6496 4.0354 87.7953 4.29622 87.8077 4.29622C87.82 4.29622 87.9845 4.06405 88.1732 3.78029C89.3897 1.95075 91.3227 0.741804 93.8175 0.250151C94.6143 0.0931174 96.4707 0.0747354 97.3703 0.214971C99.3963 0.530768 100.809 1.21552 101.918 2.41985C103.126 3.73007 103.766 5.50322 103.926 7.98402C103.965 8.58351 103.998 12.8657 103.998 17.4999L104 25.9259H102.185H100.37V17.1646C100.37 11.5742 100.343 8.17628 100.294 7.77576C100.049 5.7741 99.258 4.41556 97.9891 3.8171C97.2976 3.49095 96.7728 3.357 95.7866 3.25491C92.7387 2.93942 90.4448 4.18107 89.3719 6.72697C89.0638 7.45809 88.9259 7.93903 88.7274 8.97543C88.5697 9.79856 88.5661 9.96998 88.5392 17.8703L88.5117 25.9259H86.7022H84.8927L84.8702 16.6481L84.8477 7.3703L84.6807 6.74067C84.3316 5.42502 83.6446 4.3908 82.7866 3.88946C81.8438 3.33858 80.6404 3.11629 79.3272 3.25043C77.5803 3.42888 76.4597 3.92374 75.3658 4.99992C74.2571 6.09063 73.5868 7.55589 73.211 9.70981C73.1047 10.3187 73.0854 11.3937 73.0591 18.1666L73.0289 25.9259H71.2551H69.4814V13.3703H69.4815ZM144.296 13.3703V0.814739H146.074H147.852V13.3703V25.9259H146.074H144.296V13.3703ZM161.926 25.8195C160.448 25.6067 159.153 25.2092 157.889 24.5801C151.548 21.4248 148.911 13.8149 151.937 7.40733C154.509 1.96286 160.59 -0.983403 166.517 0.343251C171.478 1.45346 175.282 5.34219 176.372 10.4152C176.576 11.3614 176.653 13.5174 176.521 14.5694C176.341 16.0114 175.909 17.4313 175.248 18.7574C174.539 20.1815 173.824 21.1386 172.565 22.3481C170.667 24.1735 168.532 25.2498 165.815 25.7521C164.974 25.9077 162.8 25.9453 161.926 25.8195ZM165.096 20.7756C165.864 20.6233 166.896 20.1126 167.388 19.6417C167.873 19.1759 168.314 18.4977 168.512 17.9095C168.597 17.6582 168.667 17.4258 168.667 17.393C168.667 17.3601 166.429 17.3333 163.694 17.3333H158.721L158.766 17.611C158.838 18.0572 159.307 18.9218 159.725 19.38C160.368 20.0849 161.203 20.5461 162.259 20.779C162.879 20.9157 164.398 20.9139 165.096 20.7756V20.7756ZM179.481 13.3703V0.814739H181.258H183.034L183.054 2.45569L183.074 4.09665L183.456 3.58264C184.716 1.88771 186.677 0.696595 188.949 0.245536C189.882 0.0604421 192.032 0.0804101 193.187 0.284883C196.697 0.906612 198.818 2.76514 199.554 5.86401C199.959 7.57015 199.95 7.34463 199.98 16.9814L200.008 25.9259H198.189H196.37V17.5963C196.37 8.69012 196.358 8.34081 195.996 7.03983C195.442 5.04603 194.124 3.80175 192.103 3.36547C191.4 3.2137 189.746 3.19145 189.037 3.3242C186.176 3.85969 184.158 5.876 183.374 8.98357C183.057 10.2376 183.037 10.8078 183.037 18.5584V25.9259H181.259H179.481V13.3703Z" fill="white"/>
</g>
<defs>
<clipPath id="clip0_5_204">
<rect width="200" height="26.5926" fill="white"/>
</clipPath>
</defs>
</svg>
