<svg width="200" height="26" viewBox="0 0 200 26" fill="none" xmlns="http://www.w3.org/2000/svg">
<g clip-path="url(#clip0_5_185)">
<path d="M193.946 12.2876C195.379 9.38472 196.836 7.93328 198.316 7.93328C199.44 7.9333 200.002 8.50322 200.002 9.64304C200.002 10.474 199.807 11.6977 199.415 13.3143C199.024 14.9308 198.828 16.1545 198.828 16.9855C198.828 17.6406 198.988 18.1759 199.307 18.5914C198.695 18.9802 198.09 19.1747 197.494 19.1747C196.492 19.1747 195.992 18.6926 195.992 17.7285C195.992 17.0148 196.098 16.1307 196.311 15.076C196.849 12.4182 197.118 10.9561 197.118 10.6898C197.118 10.3968 197.028 10.2503 196.846 10.2503C196.314 10.2503 195.499 11.4115 194.402 13.7338C193.347 15.9655 192.82 17.4623 192.82 18.2239C192.82 18.4263 192.865 18.6687 192.956 18.951C192.412 19.1001 191.888 19.1747 191.382 19.1747C190.465 19.1747 190.007 18.8444 190.007 18.184C190.007 17.8537 190.074 17.4223 190.207 16.8897L190.527 15.6114C191.278 12.6073 191.653 10.4874 191.653 9.25168C191.653 8.95874 191.6 8.68177 191.493 8.42073C192.202 8.1704 192.814 8.04524 193.331 8.04522C194.146 8.04523 194.553 8.38346 194.553 9.05991C194.553 9.43276 194.351 10.5087 193.946 12.2877L193.946 12.2876ZM181.283 19.2785C180.143 19.2785 179.236 18.927 178.562 18.2239C177.889 17.5208 177.552 16.5967 177.552 15.4515C177.552 13.6352 178.111 11.9654 179.23 10.442C180.449 8.76955 181.935 7.93328 183.688 7.93328C184.796 7.9333 185.688 8.29549 186.364 9.0199C187.025 9.72302 187.355 10.6338 187.355 11.7523C187.355 13.542 186.801 15.2065 185.693 16.7458C184.479 18.4343 183.009 19.2784 181.283 19.2784V19.2785ZM181.834 17.6646C182.67 17.6646 183.331 16.8284 183.816 15.1559C184.172 13.9255 184.351 12.7457 184.351 11.6165C184.351 10.2423 183.941 9.55523 183.12 9.55523C182.258 9.55524 181.581 10.3888 181.091 12.056C180.734 13.2704 180.556 14.4528 180.556 15.6033C180.556 16.9775 180.982 17.6646 181.834 17.6646H181.834ZM171.599 8.45246C172.334 8.18082 173.003 8.045 173.605 8.04499C174.414 8.045 174.819 8.35393 174.819 8.9718C174.819 9.2541 174.768 9.59233 174.667 9.98648C173.783 13.4486 173.341 15.8056 173.341 17.0572C173.341 17.6644 173.501 18.1757 173.82 18.5912C173.203 18.98 172.603 19.1744 172.023 19.1744C170.979 19.1744 170.457 18.6924 170.457 17.7283C170.457 16.7962 170.686 15.4167 171.144 13.5897C171.602 11.7628 171.831 10.3833 171.831 9.45113C171.831 9.11558 171.754 8.78268 171.599 8.45247L171.599 8.45246ZM175.203 6.38313C174.633 6.65479 174.111 6.79061 173.637 6.7906C172.923 6.79061 172.566 6.59354 172.566 6.19937C172.566 6.06623 172.593 5.86649 172.646 5.60016C172.699 5.33385 172.726 5.13411 172.726 5.00093C172.726 4.9104 172.691 4.80121 172.622 4.67336C173.309 4.42303 173.89 4.29787 174.364 4.29785C175.141 4.29787 175.53 4.59349 175.53 5.18471C175.53 5.44571 175.421 5.84519 175.203 6.38313H175.203ZM161.78 11.2248H161.42C160.813 11.2248 160.217 11.342 159.631 11.5764C159.604 11.3207 159.591 11.1343 159.591 11.0171C159.591 10.3247 159.852 9.88528 160.374 9.69882C160.635 9.60295 161.213 9.55502 162.107 9.55501C162.395 8.09028 162.539 7.14752 162.539 6.72673C162.539 6.39118 162.462 6.05828 162.307 5.72806C163.032 5.45643 163.7 5.32061 164.313 5.32059C165.122 5.32061 165.527 5.62953 165.527 6.2474C165.527 6.63624 165.436 7.1875 165.255 7.90125L164.84 9.5551H165.719C166.427 9.55511 167.197 9.47522 168.028 9.31542C167.958 10.6044 167.215 11.2489 165.799 11.2489C165.655 11.2489 165.439 11.2449 165.151 11.2369C164.864 11.2289 164.648 11.2249 164.504 11.2249C164.014 13.5579 163.769 15.1265 163.769 15.9307C163.769 16.7723 164.078 17.1931 164.696 17.1931C165.239 17.1931 165.884 16.9214 166.63 16.3782C166.805 16.7191 166.893 17.02 166.893 17.281C166.893 17.8988 166.488 18.4022 165.679 18.791C165.018 19.1052 164.342 19.2624 163.649 19.2624C161.881 19.2624 160.997 18.3915 160.997 16.6498C160.997 15.5046 161.258 13.6963 161.78 11.2249V11.2248ZM153.271 14.916C151.673 17.8242 150.198 19.2783 148.845 19.2783C147.444 19.2783 146.744 18.2929 146.744 16.3222C146.744 14.5059 147.239 12.7243 148.23 10.9772C149.386 8.94791 150.805 7.93322 152.488 7.93322C153.266 7.93323 153.953 8.13031 154.55 8.52445C154.843 8.19955 155.245 8.03709 155.756 8.03709C156.374 8.0371 156.978 8.17825 157.57 8.46053C157.165 9.28078 156.787 10.6017 156.435 12.4234C156.11 14.1384 155.948 15.518 155.948 16.5619C155.948 17.3236 156.084 17.9921 156.355 18.5673C155.887 18.9721 155.349 19.1745 154.741 19.1745C153.618 19.1745 153.056 18.554 153.056 17.3129C153.056 16.6738 153.127 15.8748 153.271 14.9161L153.271 14.916ZM154.086 10.8574C153.468 10.0265 152.856 9.611 152.249 9.611C151.487 9.61101 150.845 10.4632 150.323 12.1677C149.908 13.5153 149.7 14.695 149.7 15.707C149.7 16.4847 149.876 16.8735 150.227 16.8735C150.6 16.8735 151.301 15.984 152.329 14.2049C153.085 12.9053 153.671 11.7894 154.086 10.8573L154.086 10.8574ZM137.012 18.9507C136.491 19.0999 135.985 19.1744 135.494 19.1744C134.695 19.1744 134.296 18.8602 134.296 18.2317C134.296 17.976 134.384 17.454 134.56 16.6657C135.327 13.2195 135.71 11.2008 135.71 10.6096C135.71 10.4125 135.644 10.314 135.51 10.314C135.047 10.314 134.237 11.4152 133.082 13.6177C131.926 15.8202 131.348 17.3422 131.348 18.1837C131.348 18.4181 131.393 18.6738 131.484 18.9507C130.94 19.0999 130.442 19.1744 129.99 19.1744C129.116 19.1744 128.679 18.8442 128.679 18.1838C128.679 17.8375 128.743 17.4061 128.871 16.8895C129.84 12.9693 130.325 10.4153 130.325 9.22767C130.325 8.95071 130.269 8.68173 130.157 8.42072C130.866 8.1704 131.46 8.04522 131.939 8.04521C132.701 8.04522 133.082 8.38078 133.082 9.05192C133.082 9.48337 133.004 10.024 132.85 10.6738L132.466 12.2877C134.123 9.38483 135.62 7.9334 136.957 7.9334C137.915 7.93342 138.395 8.506 138.395 9.65114C138.395 9.9654 138.336 10.4048 138.219 10.9694C138.091 11.582 138.019 12.0214 138.003 12.2877C139.67 9.38483 141.186 7.9334 142.549 7.9334C143.524 7.93342 144.011 8.46871 144.011 9.53932C144.011 9.85891 143.918 10.4741 143.732 11.3849C143.108 14.4316 142.797 16.2931 142.797 16.9696C142.797 17.6301 142.954 18.1707 143.268 18.5915C142.661 18.9803 142.08 19.1747 141.527 19.1747C140.578 19.1747 140.104 18.6927 140.104 17.7286C140.104 16.9563 140.222 15.9948 140.456 14.8443C140.978 12.2877 141.239 10.8762 141.239 10.6099C141.239 10.4128 141.172 10.3143 141.039 10.3143C140.581 10.3143 139.774 11.4155 138.618 13.618C137.463 15.8204 136.885 17.3424 136.885 18.184C136.885 18.4184 136.927 18.6741 137.012 18.951L137.012 18.9507ZM122.703 8.45273C123.438 8.1811 124.107 8.04528 124.709 8.04526C125.518 8.04527 125.923 8.3542 125.923 8.97207C125.923 9.25438 125.873 9.5926 125.771 9.98676C124.887 13.4489 124.445 15.8058 124.445 17.0575C124.445 17.6647 124.605 18.176 124.924 18.5914C124.307 18.9803 123.707 19.1747 123.127 19.1747C122.083 19.1747 121.561 18.6927 121.561 17.7286C121.561 16.7964 121.79 15.4169 122.248 13.59C122.706 11.763 122.935 10.3835 122.935 9.4514C122.935 9.11585 122.858 8.78296 122.703 8.45274L122.703 8.45273ZM126.307 6.3834C125.737 6.65506 125.215 6.79088 124.741 6.79088C124.027 6.79089 123.67 6.59382 123.67 6.19965C123.67 6.0665 123.697 5.86676 123.75 5.60043C123.803 5.33412 123.83 5.13439 123.83 5.00121C123.83 4.91068 123.795 4.80148 123.726 4.67363C124.413 4.4233 124.994 4.29814 125.468 4.29813C126.245 4.29814 126.634 4.59376 126.634 5.18498C126.634 5.44598 126.525 5.84546 126.307 6.3834H126.307ZM112.197 12.2877C113.63 9.38485 115.087 7.93342 116.568 7.93342C117.692 7.93344 118.253 8.50335 118.253 9.64318C118.253 10.4741 118.058 11.6978 117.666 13.3144C117.275 14.931 117.079 16.1547 117.079 16.9856C117.079 17.6408 117.239 18.1761 117.558 18.5916C116.946 18.9804 116.341 19.1748 115.745 19.1748C114.743 19.1748 114.243 18.6928 114.243 17.7287C114.243 17.0149 114.349 16.1308 114.562 15.0762C115.1 12.4183 115.369 10.9562 115.369 10.6899C115.369 10.3969 115.279 10.2505 115.098 10.2505C114.565 10.2505 113.75 11.4116 112.653 13.7339C111.598 15.9657 111.071 17.4624 111.071 18.224C111.071 18.4264 111.116 18.6688 111.207 18.9511C110.663 19.1002 110.139 19.1748 109.633 19.1748C108.717 19.1748 108.259 18.8446 108.259 18.1841C108.259 17.8539 108.325 17.4224 108.458 16.8898L108.778 15.6115C109.529 12.6074 109.904 10.4875 109.904 9.25181C109.904 8.95888 109.851 8.6819 109.745 8.42087C110.453 8.17054 111.066 8.04537 111.582 8.04536C112.397 8.04537 112.805 8.38359 112.805 9.06004C112.805 9.4329 112.602 10.5088 112.197 12.2878L112.197 12.2877ZM97.9762 14.5967C97.7844 15.0015 97.5048 15.614 97.1373 16.4343C96.791 17.2386 96.6179 17.9124 96.6179 18.4556C96.6179 18.5728 96.6259 18.6793 96.6419 18.7752C95.8643 19.0415 95.2331 19.1747 94.7484 19.1747C94.2211 19.1747 93.9574 18.9776 93.9574 18.5834C93.9574 18.3384 94.0533 18.0428 94.2451 17.6966C95.2251 15.8643 96.7138 13.0786 98.7112 9.33938C99.0894 8.65762 99.7472 7.41923 100.685 5.62425L101.931 5.28868C102.405 5.16086 102.828 5.09695 103.201 5.09693C103.856 5.09695 104.184 5.58964 104.184 6.57502C104.184 6.87864 104.176 7.3367 104.16 7.94921C104.144 8.56175 104.136 9.01981 104.136 9.3234V13.8055C104.136 16.0213 104.472 17.5873 105.143 18.5034C104.349 18.9508 103.619 19.1745 102.954 19.1745C102.043 19.1745 101.553 18.2637 101.484 16.4421L101.412 14.5965L97.9762 14.5967ZM98.6074 13.1186H101.452L101.436 11.9441V11.0493C101.436 10.7084 101.449 10.1758 101.476 9.45133C101.497 8.87609 101.508 8.42867 101.508 8.10905V7.85338L101.492 7.03845C100.549 8.84945 99.5875 10.8761 98.6074 13.1185L98.6074 13.1186ZM81.1259 19.2786C79.9861 19.2786 79.0792 18.927 78.4055 18.2239C77.7317 17.5209 77.3948 16.5968 77.3948 15.4516C77.3948 13.6353 77.9541 11.9654 79.0726 10.4421C80.2924 8.76962 81.7784 7.93335 83.5308 7.93335C84.6387 7.93336 85.5309 8.29556 86.2073 9.01997C86.8678 9.72308 87.198 10.6339 87.198 11.7524C87.198 13.5421 86.6441 15.2065 85.5362 16.7459C84.3218 18.4343 82.8517 19.2785 81.1259 19.2785V19.2786ZM81.6772 17.6647C82.5135 17.6647 83.1739 16.8284 83.6586 15.156C84.0154 13.9256 84.1939 12.7458 84.1939 11.6166C84.1939 10.2424 83.7837 9.5553 82.9635 9.5553C82.1006 9.55531 81.4242 10.3889 80.9341 12.0561C80.5772 13.2705 80.3988 14.4529 80.3988 15.6034C80.3988 16.9776 80.8249 17.6647 81.6771 17.6647H81.6772ZM69.1018 11.2251H68.7423C68.1351 11.2251 67.5386 11.3423 66.9527 11.5766C66.926 11.321 66.9127 11.1346 66.9127 11.0174C66.9127 10.325 67.1737 9.88556 67.6957 9.69909C67.9567 9.60323 68.5346 9.55529 69.4294 9.55528C69.717 8.09055 69.8609 7.14779 69.8609 6.727C69.8609 6.39145 69.7836 6.05855 69.6292 5.72833C70.3535 5.4567 71.022 5.32088 71.6345 5.32086C72.4441 5.32088 72.8489 5.6298 72.8489 6.24767C72.8489 6.63651 72.7584 7.18777 72.5773 7.90152L72.1618 9.55537H73.0407C73.7491 9.55538 74.5188 9.47549 75.3497 9.31569C75.2804 10.6047 74.5374 11.2491 73.1206 11.2491C72.9768 11.2491 72.7611 11.2452 72.4734 11.2372C72.1858 11.2292 71.9701 11.2252 71.8263 11.2252C71.3363 13.5581 71.0913 15.1268 71.0913 15.931C71.0913 16.7726 71.4002 17.1934 72.0181 17.1934C72.5614 17.1934 73.2059 16.9217 73.9515 16.3784C74.1273 16.7193 74.2152 17.0203 74.2152 17.2812C74.2152 17.8991 73.8104 18.4024 73.0008 18.7912C72.3403 19.1055 71.6639 19.2626 70.9714 19.2626C69.203 19.2626 68.3189 18.3918 68.3189 16.6501C68.3189 15.5049 68.5799 13.6966 69.1018 11.2252V11.2251ZM58.4675 19.2782C57.3276 19.2782 56.4208 18.9267 55.7471 18.2236C55.0733 17.5206 54.7364 16.5964 54.7364 15.4512C54.7364 13.6349 55.2957 11.9651 56.4142 10.4417C57.634 8.76928 59.12 7.93301 60.8724 7.93301C61.9803 7.93303 62.8725 8.29522 63.5489 9.01963C64.2094 9.72274 64.5396 10.6335 64.5396 11.7521C64.5396 13.5417 63.9857 15.2062 62.8778 16.7455C61.6633 18.434 60.1933 19.2782 58.4675 19.2782V19.2782ZM59.0188 17.6643C59.8551 17.6643 60.5155 16.8281 61.0002 15.1556C61.357 13.9252 61.5354 12.7455 61.5355 11.6162C61.5355 10.2421 61.1253 9.55496 60.3051 9.55496C59.4422 9.55497 58.7657 10.3886 58.2757 12.0557C57.9188 13.2702 57.7404 14.4526 57.7404 15.6031C57.7404 16.9772 58.1665 17.6643 59.0187 17.6643H59.0188ZM43.2248 8.85921C43.9704 8.31593 44.7321 8.04428 45.5098 8.04428C46.2768 8.04429 46.7242 8.66215 46.8521 9.89789C46.9852 11.3041 47.1983 13.2748 47.4912 15.8102L49.3768 12.5505C50.2237 11.0858 50.6471 9.93259 50.6471 9.09101C50.6471 8.87264 50.5965 8.56105 50.4953 8.15623C52.1731 8.2095 53.012 8.60898 53.012 9.35465C53.012 10.1323 52.3462 11.5571 51.0146 13.629C49.715 15.6637 48.3142 17.4854 46.8121 19.0939C45.1396 20.8889 43.8959 21.7864 43.0809 21.7864C42.2128 21.7864 41.7786 21.4907 41.7786 20.8995C41.7786 20.4681 42.0183 19.9248 42.4977 19.2697C42.8066 19.4934 43.1235 19.6052 43.4484 19.6052C44.2474 19.6052 44.9238 19.0939 45.4778 18.0712C44.6629 12.8833 43.9118 9.81287 43.2247 8.85906L43.2248 8.85921ZM31.7437 18.6863C31.0193 19.0112 30.3695 19.1737 29.7942 19.1737C29.0485 19.1737 28.6757 18.918 28.6757 18.4067C28.6757 18.0658 28.7476 17.6237 28.8914 17.0804C30.175 12.2334 30.8169 8.88548 30.8169 7.03787C30.8168 6.66504 30.713 6.31614 30.5053 5.99121C31.3788 5.54381 32.183 5.32009 32.9181 5.32008C33.5946 5.32009 33.9328 5.56777 33.9328 6.06308C33.9328 6.06309 33.789 6.78747 33.5014 8.23624L32.8063 11.7436C36.0713 7.45595 38.423 5.31204 39.8613 5.31204C40.6017 5.31205 40.9719 5.66093 40.9719 6.3587C40.9719 6.44393 40.9319 6.77416 40.852 7.34939L40.4286 7.33341C40.4286 7.33342 40.386 7.33342 40.3008 7.33341C39.6296 7.33342 38.9266 7.59707 38.1915 8.1244C37.6322 8.52922 37.017 9.11509 36.3459 9.88209C35.8505 10.484 35.3552 11.0832 34.8598 11.6797C36.5376 15.2963 38.0396 17.1046 39.366 17.1046H39.4539C39.2088 18.5587 38.559 19.2858 37.5044 19.2858C36.5243 19.2858 35.5017 18.4042 34.4364 16.6412C33.7067 15.4428 33.0995 14.1298 32.6148 12.7024C31.9862 15.6319 31.672 17.4082 31.672 18.0314C31.672 18.1965 31.696 18.4149 31.7439 18.6866L31.7437 18.6863Z" fill="white"/>
<path d="M12.6576 8.17363C11.1369 8.15254 9.67031 9.12996 9.09414 10.5356C8.4927 11.9166 8.80391 13.632 9.85814 14.7093C10.8725 15.8009 12.5435 16.1992 13.9428 15.6897C15.3931 15.197 16.4625 13.7722 16.5199 12.2399C16.6162 10.7504 15.7528 9.26154 14.4182 8.59667C13.876 8.31805 13.267 8.17267 12.6575 8.17359L12.6576 8.17363ZM10.8039 10.5069C11.7057 10.4813 12.5039 11.3215 12.4318 12.2208C12.4109 13.1224 11.5316 13.8761 10.6373 13.7585C9.73821 13.6915 9.03039 12.7758 9.19266 11.8886C9.29824 11.1122 10.0199 10.4921 10.804 10.5068L10.8039 10.5069ZM12.3022 7.08968C12.2121 7.05747 11.9993 6.75645 11.8292 6.4208C11.6397 6.04688 11.0521 5.37059 10.3121 4.67484C8.88169 3.3299 8.51735 2.77541 8.51735 1.9431C8.51735 0.697629 9.49386 0.00317383 11.2454 0.00317383C12.905 0.00317383 14.2829 0.859278 14.7109 2.15622C15.103 3.34408 14.5952 5.03005 13.4679 6.28404C12.8343 6.98872 12.5565 7.18064 12.3022 7.08962L12.3022 7.08968ZM16.2055 8.83462C15.8426 8.62329 15.9342 8.40349 16.8718 7.23489C17.3788 6.603 18.0553 5.54204 18.4436 4.7698C19.1872 3.29068 19.5593 2.92375 20.4714 2.7696C22.0564 2.50181 23.5282 3.81149 23.5219 5.48382C23.5145 7.46227 22.345 8.25449 18.6587 8.77837C17.0962 9.00044 16.513 9.01383 16.2054 8.83471L16.2055 8.83462ZM3.36831 9.29494C1.88477 9.02573 1.17558 8.73606 0.56294 8.14901C0.020089 7.62887 0.000610352 7.58348 0.000610352 6.83905C0.000610352 5.33846 1.19488 4.25144 2.8503 4.24516C3.83185 4.24107 4.32743 4.51468 5.43702 5.67144C5.93083 6.18628 6.89718 7.00377 7.58448 7.48803C8.9102 8.42213 9.03551 8.64453 8.40609 8.94621C7.34879 9.45298 5.09777 9.60878 3.36831 9.29496V9.29494ZM2.74932 21.4394C1.32625 20.932 0.688993 18.8434 1.53808 17.4695C1.98333 16.7491 2.44123 16.5726 3.7081 16.6328C6.47748 16.7644 7.21114 16.7242 7.89646 16.4028C8.25429 16.2351 8.63768 16.1326 8.74847 16.1751C9.08616 16.3047 8.99509 17.1518 8.54706 18.0483C7.44245 20.2589 4.41107 22.032 2.74931 21.4394L2.74932 21.4394ZM18.9538 22.058C18.3222 21.9212 17.8286 21.2434 17.5246 20.0958C17.1515 18.6871 16.8554 18.0229 16.233 17.1985C15.9541 16.8292 15.726 16.4397 15.726 16.333C15.726 15.6219 18.8338 15.5107 20.2556 16.1709C21.8511 16.9117 22.6297 17.8991 22.6297 19.1814C22.6297 20.0088 22.4109 20.5463 21.8496 21.0978C21.0612 21.8725 19.8902 22.2606 18.9537 22.0579L18.9538 22.058ZM11.1236 25.0867C8.66652 24.6085 8.19882 21.6282 10.3066 19.8806C11.6088 18.801 11.9161 18.4632 12.321 17.6666C12.5533 17.2095 12.8248 16.8355 12.9243 16.8355C13.1612 16.8355 14.1356 18.7971 14.3824 19.7709C14.6566 20.8526 14.6331 22.7056 14.3371 23.3558C13.7997 24.5357 12.338 25.323 11.1236 25.0867L11.1236 25.0867Z" fill="white"/>
</g>
<defs>
<clipPath id="clip0_5_185">
<rect width="200" height="25.1256" fill="white"/>
</clipPath>
</defs>
</svg>
