<svg width="204" height="184" viewBox="0 0 204 184" fill="none" xmlns="http://www.w3.org/2000/svg">
<path d="M182 2H22C10.9543 2 2 10.9543 2 22V122C2 133.046 10.9543 142 22 142H182C193.046 142 202 133.046 202 122V22C202 10.9543 193.046 2 182 2Z" stroke="white" stroke-width="3" stroke-linecap="round" stroke-linejoin="round"/>
<path d="M62 182H142" stroke="white" stroke-width="3" stroke-linecap="round" stroke-linejoin="round"/>
<path d="M102 142V182" stroke="white" stroke-width="3" stroke-linecap="round" stroke-linejoin="round"/>
<rect x="46" y="80.3809" width="84.7568" height="7.61905" rx="3.80952" fill="url(#paint0_linear_8_151)"/>
<rect x="73.2433" y="68.1904" width="84.7568" height="7.61905" rx="3.80952" fill="url(#paint1_linear_8_151)"/>
<rect x="58.1082" y="56" width="84.7568" height="7.61905" rx="3.80952" fill="url(#paint2_linear_8_151)"/>
<defs>
<linearGradient id="paint0_linear_8_151" x1="46" y1="84.1904" x2="130.757" y2="84.1904" gradientUnits="userSpaceOnUse">
<stop stop-color="#CB5CFF"/>
<stop offset="1" stop-color="#FFBB54"/>
</linearGradient>
<linearGradient id="paint1_linear_8_151" x1="73.2433" y1="72" x2="158" y2="72" gradientUnits="userSpaceOnUse">
<stop stop-color="#00F0FF"/>
<stop offset="1" stop-color="#CB5CFF"/>
</linearGradient>
<linearGradient id="paint2_linear_8_151" x1="58.1082" y1="59.8095" x2="142.865" y2="59.8095" gradientUnits="userSpaceOnUse">
<stop stop-color="#4BFF73"/>
<stop offset="1" stop-color="#00F0FF"/>
</linearGradient>
</defs>
</svg>
