<svg width="93" height="39" viewBox="0 0 93 39" fill="none" xmlns="http://www.w3.org/2000/svg">
<path fill-rule="evenodd" clip-rule="evenodd" d="M92.7617 19.9439C92.7617 13.3475 89.5666 8.14258 83.4597 8.14258C77.3272 8.14258 73.6167 13.3475 73.6167 19.8924C73.6167 27.6483 77.9971 31.5649 84.2843 31.5649C87.3506 31.5649 89.6696 30.8692 91.4218 29.89V24.7366C89.6696 25.6127 87.6598 26.1538 85.1088 26.1538C82.6094 26.1538 80.3935 25.2777 80.11 22.2372H92.7101C92.7101 21.9022 92.7617 20.5623 92.7617 19.9439ZM80.0327 17.4961C80.0327 14.5844 81.8106 13.3733 83.434 13.3733C85.0058 13.3733 86.6806 14.5844 86.6806 17.4961H80.0327Z" fill="white"/>
<path fill-rule="evenodd" clip-rule="evenodd" d="M63.6706 8.14258C61.1454 8.14258 59.522 9.32787 58.6202 10.1524L58.2852 8.55485H52.6165V38.5993L59.0582 37.2337L59.084 29.9416C60.0116 30.6115 61.3773 31.5649 63.6448 31.5649C68.2571 31.5649 72.4572 27.8544 72.4572 19.6863C72.4314 12.2138 68.1798 8.14258 63.6706 8.14258ZM62.1245 25.8961C60.6043 25.8961 59.7024 25.355 59.084 24.6851L59.0582 15.1255C59.7282 14.3782 60.6558 13.8629 62.1245 13.8629C64.4693 13.8629 66.0927 16.4911 66.0927 19.8666C66.0927 23.3194 64.4951 25.8961 62.1245 25.8961Z" fill="white"/>
<path fill-rule="evenodd" clip-rule="evenodd" d="M43.7526 6.62215L50.2201 5.23073V0L43.7526 1.36566V6.62215Z" fill="white"/>
<path d="M50.2201 8.58057H43.7526V31.1268H50.2201V8.58057Z" fill="white"/>
<path fill-rule="evenodd" clip-rule="evenodd" d="M36.8212 10.4871L36.409 8.58031H30.8433V31.1266H37.285V15.8466C38.8053 13.8626 41.382 14.2233 42.1808 14.5068V8.58031C41.3563 8.2711 38.3415 7.70422 36.8212 10.4871Z" fill="white"/>
<path fill-rule="evenodd" clip-rule="evenodd" d="M23.9377 2.98926L17.6505 4.32915L17.6248 24.9686C17.6248 28.7822 20.4849 31.5908 24.2984 31.5908C26.4114 31.5908 27.9574 31.2043 28.8077 30.7405V25.5097C27.9831 25.8447 23.9119 27.03 23.9119 23.2165V14.0691H28.8077V8.58073H23.9119L23.9377 2.98926Z" fill="white"/>
<path fill-rule="evenodd" clip-rule="evenodd" d="M6.51909 15.1255C6.51909 14.1206 7.34364 13.734 8.70929 13.734C10.6676 13.734 13.1412 14.3267 15.0995 15.3831V9.32787C12.9609 8.47755 10.848 8.14258 8.70929 8.14258C3.47856 8.14258 0 10.8739 0 15.4347C0 22.5464 9.79151 21.4127 9.79151 24.4789C9.79151 25.6642 8.76083 26.0507 7.31787 26.0507C5.1792 26.0507 2.44788 25.1747 0.283438 23.9894V30.1219C2.67978 31.1526 5.10189 31.5907 7.31787 31.5907C12.6774 31.5907 16.3621 28.9367 16.3621 24.3243C16.3364 16.6457 6.51909 18.0114 6.51909 15.1255Z" fill="white"/>
</svg>
