<svg width="200" height="97" viewBox="0 0 200 97" fill="none" xmlns="http://www.w3.org/2000/svg">
<g clip-path="url(#clip0_5_98)">
<path d="M80.3518 83.2645C79.8865 82.4277 79.2864 81.9991 78.3353 81.9991C77.3353 81.9991 76.2372 82.7298 76.2372 83.9095C76.2372 84.9585 77.2006 85.5096 77.9843 85.828L78.8823 86.2076C80.6702 86.9505 82.0009 88.0037 82.0009 90.2488C82.0009 92.6898 80.2375 94.4409 77.9843 94.4409C75.9556 94.4409 74.3718 92.8367 74.1024 90.6774L75.6862 90.3222C75.6698 91.7999 76.7679 92.8694 78.119 92.8694C79.4701 92.8694 80.4335 91.657 80.4335 90.2488C80.4335 88.8037 79.3517 88.1833 78.27 87.7016L77.4047 87.3098C75.9719 86.6526 74.6657 85.779 74.6657 83.9095C74.6657 81.7338 76.4699 80.4317 78.368 80.4317C79.7681 80.4317 80.9192 81.1623 81.6009 82.4645L80.3518 83.2645Z" fill="white"/>
<path d="M87.1031 94.1528H85.5356V82.2499H82.5558V80.715H90.087V82.2499H87.1031V94.1528Z" fill="white"/>
<path d="M92.6706 80.7167V88.6438C92.6706 90.8399 93.287 92.8686 95.7035 92.8686C98.12 92.8686 98.7364 90.8399 98.7364 88.6438V80.7167H100.304V89.2153C100.304 92.1747 98.5854 94.4402 95.7035 94.4402C92.8217 94.4402 91.1032 92.1747 91.1032 89.2153V80.7167H92.6706Z" fill="white"/>
<path d="M103.907 92.6204H104.458C107.654 92.6204 110.421 91.3387 110.421 87.4363C110.421 83.5136 107.654 82.2482 104.458 82.2482H103.907V92.6204ZM102.339 80.7174H104.939C108.793 80.7174 111.989 82.889 111.989 87.3628C111.989 91.9428 108.854 94.1511 104.886 94.1511H102.339V80.7174Z" fill="white"/>
<path d="M115.076 94.1548H113.509V80.717H115.076V94.1548Z" fill="white"/>
<path d="M128.139 87.4343C128.139 84.4749 126.074 81.9971 123.123 81.9971C120.176 81.9971 118.11 84.4749 118.11 87.4343C118.11 90.4998 120.408 92.8714 123.123 92.8714C125.841 92.8714 128.139 90.4998 128.139 87.4343ZM129.707 87.4343C129.707 91.4264 126.76 94.4348 123.123 94.4348C119.49 94.4348 116.543 91.4264 116.543 87.4343C116.543 83.585 119.527 80.4337 123.123 80.4337C126.723 80.4337 129.707 83.585 129.707 87.4343Z" fill="white"/>
<path d="M147.491 87.3813V87.916C147.491 91.6061 145.058 94.439 141.543 94.439C138.025 94.439 135.192 91.1938 135.192 87.4711C135.192 83.6055 138.094 80.4297 141.707 80.4297C143.658 80.4297 145.593 81.3726 146.825 83.034L145.727 84.1565C144.825 82.8381 143.307 81.9645 141.776 81.9645C138.96 81.9645 136.759 84.4055 136.759 87.4139C136.759 90.2346 138.927 92.9042 141.641 92.9042C143.593 92.9042 145.691 91.1081 145.756 88.912H142.507V87.3813H147.491Z" fill="white"/>
<path d="M156.459 86.1332V80.7164H158.027V94.1501H156.459V87.7047H150.479V94.1501H148.912V80.7164H150.479V86.1332H156.459Z" fill="white"/>
<path d="M161.814 94.1548H160.247V80.717H161.814V94.1548Z" fill="white"/>
<path d="M165.595 92.6555H166.795C168.244 92.6555 169.759 92.1942 169.759 90.2839C169.759 88.398 167.963 88.0021 166.563 88.0021H165.595V92.6555ZM165.595 86.6714H165.995C167.481 86.6714 168.693 86.3489 168.693 84.4222C168.693 82.5323 167.493 82.2139 166.028 82.2139H165.595V86.6714ZM164.028 80.7158H165.563C167.926 80.7158 170.159 81.373 170.159 84.4059C170.159 85.3815 169.661 86.5244 168.808 86.953V86.9857C170.294 87.2755 171.326 88.8225 171.326 90.39C171.326 93.0841 169.179 94.1536 166.963 94.1536H164.028V80.7158Z" fill="white"/>
<path d="M174.647 92.6204H178.463V94.1511H173.079V80.7174H174.647V92.6204Z" fill="white"/>
<path d="M181.008 94.1548H179.441V80.717H181.008V94.1548Z" fill="white"/>
<path d="M56.8097 71.7624C60.6712 70.248 64.994 66.1171 66.9003 60.5411H57.8057V58.5043H69.5576C69.329 59.5492 68.6841 62.6352 66.1982 66.264C67.2309 67.1457 69.7862 69.3663 72.1129 71.8155L70.4638 73.5952C69.7495 72.6972 68.4759 71.1052 65.0103 67.8723C63.7898 69.3663 61.357 72.0645 58.0179 73.5177L56.8097 71.7624Z" fill="white"/>
<path d="M78.1786 64.0757C78.9297 64.4145 80.3992 65.088 82.236 66.7289C83.7749 64.6186 84.175 62.6143 84.3342 61.851H78.2153C76.4805 64.4145 74.9947 65.5166 73.615 66.3738L72.3047 64.8023C75.362 63.1001 76.954 60.8428 78.1582 57.4915L80.2767 57.9201C79.942 58.7079 79.7338 59.1937 79.3501 59.908H86.7997C86.3425 62.8388 84.8403 71.4232 74.5252 73.9907L73.4068 72.1375C74.5905 71.9293 77.5663 71.4068 80.8359 68.3209C79.0889 66.6759 77.4969 65.8717 76.8111 65.5166L78.1786 64.0757Z" fill="white"/>
<path d="M88.1333 71.1448C94.7257 70.5652 97.7177 68.4303 99.9873 60.9726L101.881 61.8706C99.5016 68.9569 96.5462 72.4347 88.6232 73.3899L88.1333 71.1448ZM101.265 59.944C100.865 58.2581 100.53 57.4948 100.355 57.0825L101.775 56.7437C102.265 57.8254 102.596 59.0623 102.718 59.5113L101.265 59.944ZM98.7137 60.3358C98.4688 59.0622 98.2443 58.3153 97.8892 57.3233L99.326 56.9886C99.7628 58.1112 99.922 58.5969 100.216 59.9603L98.7137 60.3358ZM92.052 66.5281C90.0233 65.3444 87.9945 64.6382 87.1373 64.3565L87.9374 62.4135C88.5905 62.6135 91.1948 63.4422 92.8561 64.4137L92.052 66.5281ZM93.399 62.189C91.6642 61.2502 90.0233 60.6175 88.517 60.148L89.3579 58.1846C91.9949 59.0255 93.3092 59.6623 94.2889 60.148L93.399 62.189Z" fill="white"/>
<path d="M120.191 71.1448C126.783 70.5652 129.775 68.4303 132.045 60.9726L133.939 61.8706C131.559 68.9569 128.604 72.4347 120.681 73.3899L120.191 71.1448ZM133.323 59.944C132.923 58.2581 132.588 57.4948 132.412 57.0825L133.833 56.7437C134.323 57.8254 134.653 59.0623 134.776 59.5113L133.323 59.944ZM130.771 60.3358C130.526 59.0622 130.302 58.3153 129.947 57.3233L131.384 56.9886C131.82 58.1112 131.98 58.5969 132.274 59.9603L130.771 60.3358ZM124.11 66.5281C122.081 65.3444 120.052 64.6382 119.195 64.3565L119.995 62.4135C120.648 62.6135 123.252 63.4422 124.914 64.4137L124.11 66.5281ZM125.457 62.189C123.726 61.2502 122.081 60.6175 120.575 60.148L121.416 58.1846C124.057 59.0255 125.367 59.6623 126.347 60.148L125.457 62.189Z" fill="white"/>
<path d="M149.818 59.4377C149.695 58.6867 149.361 57.4335 149.067 56.7232L150.5 56.4457C150.83 57.3641 150.989 57.9233 151.234 59.0826L149.818 59.4377ZM147.981 56.5926C148.299 57.3804 148.471 58.0172 148.716 59.1969L148.189 59.2704V59.3071H149.238C148.944 67.4424 145.116 72.0591 138.556 73.5613L137.454 71.557C140.27 70.9774 146.058 69.7406 147.001 61.3277H135.931V59.3071H147.14C146.985 58.3723 146.826 57.8131 146.479 56.8539L147.981 56.5926Z" fill="white"/>
<path d="M163.896 65.0485C163.896 67.9875 163.39 70.2856 161.357 71.9306C159.769 73.2246 158.14 73.5553 154.61 73.9675L153.965 71.9102C158.443 71.6122 161.835 70.8652 161.835 66.0404V57.9418H163.896V65.0485ZM155.067 68.4365H153.042V58.2806H155.067V68.4365Z" fill="white"/>
<path d="M175.157 57.044C175.018 57.6604 174.859 58.3339 174.438 59.4197H181.978V61.2688H176.169V63.9262H181.541V65.7753H176.169V68.4531H181.541V70.2859H176.169V74.478H174.283V61.2688H173.618C172.446 63.5711 171.503 64.6364 170.96 65.2732L169.769 63.6813C171.679 61.7015 172.797 58.7299 173.218 56.8195L175.157 57.044ZM167.621 64.6569H167.585C166.993 65.4814 166.515 65.9468 166.046 66.3958L165.242 64.5466C167.181 62.5996 168.352 60.4688 169.124 56.8358L170.977 57.1746C170.732 58.0727 170.332 59.6279 169.471 61.477V74.478H167.621V64.6569Z" fill="white"/>
<path d="M186.959 62.3359H195.495V59.156H186.959V62.3359ZM185.233 57.4008H197.193V64.0993H185.233V57.4008ZM193.409 71.7652H197.132V67.3322H193.409V71.7652ZM183.563 65.6096H190.364V74.2715H188.686V73.5041H185.233V74.4021H183.563V65.6096ZM185.233 71.7652H188.698V67.3322H185.233V71.7652ZM191.719 65.6096H198.817V74.4021H197.14V73.5041H193.409V74.4021H191.719V65.6096Z" fill="white"/>
<path d="M103.532 70.6146C108.818 66.7734 110.601 63.2997 110.879 62.7078L103.438 62.6997V60.6424H112.083V57.5115H114.03V60.6424H117.994V62.7486H114.047L114.051 73.7046H112.083L112.087 64.3896C112.087 64.3896 110.508 68.2062 104.679 72.3902L103.532 70.6146Z" fill="white"/>
<path d="M56.2379 76.9461H200V77.1829H56.2379" fill="white"/>
<path d="M57.8172 28.4332V28.6251L57.507 28.7312L56.6579 28.7108L55.8089 28.7476L55.764 28.6618L56.1558 28.4169C56.7232 28.523 57.2171 28.2414 57.7356 28.3843L57.8172 28.4332Z" fill="white"/>
<path d="M37.3975 47.3753L37.2506 47.5509L36.973 47.9182L36.7771 48.1427L36.1893 48.6162L35.5892 49.0122C35.1974 49.3632 34.6585 49.6286 34.0218 49.7306L33.2544 49.8163C32.8135 49.7674 32.3278 49.7674 31.9685 49.5714L31.5767 49.449C31.0583 49.1796 30.8583 48.9836 30.6623 48.4203L30.646 48.2815H30.6133L30.5807 47.8448L30.5317 47.7223L30.4501 46.7671V46.6243H30.4664L30.4827 45.9262L30.5439 45.7875L30.6133 45.6487H30.646L30.6623 45.4242H30.6746L30.7276 45.2446V44.6037L30.7929 44.4812L30.8215 44.322L30.8582 44.0445H30.8909L30.9072 43.8853H30.9236L30.9725 43.7302V43.624H31.0052L31.0379 43.4363H31.0664L31.3644 42.877L31.544 42.6484C31.9359 42.4076 32.2747 42.0525 32.8951 42.0198L33.6136 41.7749C34.0054 41.7953 34.3646 41.8974 34.7565 41.9708L35.5729 42.3668L36.0587 42.8934H36.0913L36.128 42.9995H36.1566L36.3036 43.2771C36.9444 44.5261 37.2302 45.318 37.3485 46.7671L37.3649 46.9222H37.3975V47.3753ZM38.6344 47.408L38.1976 47.1672L38.067 47.061L37.969 46.9712L37.9037 46.6936H37.867L37.8221 45.9262H37.8057L37.7731 45.7221L37.72 45.4038L37.6588 44.8976H37.6261L37.5771 44.6527H37.5608L37.4955 44.4445L37.4302 44.1996L37.2996 43.8159H37.2669L37.1894 43.6077C36.573 42.1015 36.2301 41.7667 34.6585 41.3789L34.1687 41.2198C33.6462 41.1993 33.0747 41.2198 32.6053 41.3953C32.2298 41.3545 32.0298 41.5667 31.7726 41.7055L31.1358 42.1586L30.9521 42.4403L30.9072 42.579L30.7113 42.8403L30.6133 42.9627L30.5643 43.1546H30.5439L30.4664 43.3097V43.3628L30.4174 43.5383H30.4011L30.3521 43.7995H30.3194V43.8853L30.2868 44.1996H30.2541L30.2215 44.6037H30.1888L30.1398 44.8282H30.1235L30.0745 45.1221H30.0582L30.0419 45.3344H30.0092V45.5099H29.9765L30.0092 45.8038L29.6826 46.3467H29.6663L29.6826 46.5222L29.699 46.5712L30.0092 46.9712H29.9765V47.0978L29.9602 47.5304L30.0092 47.7958L30.0582 48.0733L30.0745 48.1591H30.1072L30.1235 48.3183L30.1888 48.5264L30.2541 48.6652L30.5154 49.053L31.0664 49.5714L31.5889 49.9919C32.1277 50.1306 32.6339 50.4613 33.287 50.3062C33.6625 50.2531 34.1361 50.2694 34.381 50.0245L34.8381 49.9388L35.1974 49.8367L35.9607 49.4326L36.4995 49.0285C36.875 48.8244 37.0546 48.4775 37.3649 48.2285L37.6588 47.8611L37.7731 47.759L38.4425 47.6733L38.6344 47.408Z" fill="white"/>
<path d="M23.8773 42.6312L23.9263 42.6475H23.9099V42.6802H23.8936L23.7793 43.1169H23.7467L23.6977 43.3823H23.6813L23.6324 43.7088H23.616L23.5834 43.9047L23.5344 44.2027H23.5017V44.3578H23.4691L23.3548 44.5864L23.1589 44.464L23.1466 44.3252H23.1752L23.2078 43.8353H23.2405L23.2895 43.6108H23.3058L23.3221 43.4149H23.3548L23.3874 43.1577H23.4201L23.5017 42.8924L23.5344 42.7863L23.5997 42.6802V42.6148L23.6324 42.5822L23.7793 42.4761L23.8773 42.6312Z" fill="white"/>
<path d="M24.2687 43.7473L24.2851 43.8207L24.3177 43.9922H24.2851L24.2361 44.2738L23.9585 44.3555L23.8932 43.9922L23.9585 43.8371L24.2687 43.7473Z" fill="white"/>
<path d="M24.8727 44.1141L24.938 44.2202V44.4978L24.8237 44.5999L24.5625 44.359L24.5788 44.2039L24.6278 44.1631L24.8727 44.1141Z" fill="white"/>
<path d="M25.7853 44.62L25.8179 44.8119L25.72 44.9343L25.4465 44.8282L25.3771 44.6527L25.3934 44.4649H25.6383L25.7853 44.62Z" fill="white"/>
<path d="M32.3581 46.1368L32.2601 46.0144L32.2274 45.7531L32.3417 45.7001L32.3907 45.7531L32.407 45.8389L32.3581 46.1368ZM32.7499 45.6837L32.6805 45.3164H32.652L32.6193 44.9163L32.5213 44.7245L32.2601 44.4592C31.7376 44.2877 31.5743 44.7408 31.3498 44.9857L31.2478 45.1245L31.1988 45.3H31.1824V45.4062L31.1335 45.5613H31.1049L31.0722 46.2756L31.1335 46.9206L31.1824 47.0104L31.5417 47.5859L32.2274 47.5492L32.4234 47.4267L32.652 47.0104H32.6805L32.7173 46.8185C32.6805 46.3981 32.7989 46.0879 32.7499 45.6837Z" fill="white"/>
<path d="M18.6257 48.8579L18.691 48.964L18.8176 49.1559L18.8543 49.3436L18.6584 49.5722L17.7277 49.8171L17.2093 49.5559L17.2705 49.4171H17.2868L17.3399 49.2048H17.3726L17.4011 49.013L17.5807 48.7844L18.3482 48.6293L18.6257 48.8579Z" fill="white"/>
<path d="M35.5705 55.0326C34.9011 55.049 34.2684 55.0326 33.6153 55.0326L32.9295 54.9469L32.7989 54.8245L32.9091 54.7714L34.3786 54.9265C34.7868 54.8041 35.1787 54.9837 35.5705 55V55.0326ZM49.5471 56.7103C48.9471 56.4981 48.245 56.4981 47.6694 56.2736C47.1184 56.2164 46.6081 56.045 46.0081 56.0939L45.4244 55.9756L44.8692 55.8694C44.4447 55.7837 43.9875 55.7633 43.5303 55.7307C43.1385 55.5184 42.5833 55.6572 42.2241 55.4531C41.571 55.4163 41.0689 55.1061 40.4158 55.1878C39.9546 55.1714 39.5831 55 39.0933 55.049C38.6238 54.9102 38.0483 54.9837 37.5789 54.8939L36.6931 54.8245C36.0767 54.7551 35.4236 54.6857 34.7868 54.7551C34.2317 54.6489 33.6479 54.5632 33.0234 54.5795L32.2274 54.4571L32.0805 54.7714H32.0478L32.0641 54.9469L32.456 55.4C32.9458 55.5347 33.5173 55.7307 34.0684 55.5755C34.5092 55.5919 34.9338 55.6572 35.3583 55.6082C35.7665 55.6776 36.191 55.5919 36.5829 55.698L37.3788 55.7633C37.9013 55.8 38.4075 55.747 38.9137 55.8327C39.3055 55.7307 39.6321 55.9225 40.0239 55.9388L41.4241 56.045C41.9016 56.2001 42.469 56.1144 42.9425 56.2368C43.3834 56.2531 43.8242 56.2531 44.2324 56.3593L45.1468 56.445L45.9101 56.6042L46.5959 56.7103C47.0857 56.8818 47.6694 56.8654 48.1634 57.041L49.0083 57.2124L49.7104 57.1226L49.7431 57.0736L49.5471 56.7103Z" fill="white"/>
<path d="M29.7328 57.1082C30.2226 57.2633 30.839 57.1408 31.3329 57.3694L32.0309 57.5286L32.4718 57.6837C32.88 57.6837 33.2882 57.8225 33.7086 57.8388L34.0556 58.2266V58.4348C33.4351 58.3981 32.9167 58.1532 32.3085 58.0878L31.5248 57.9082C30.5941 57.8756 29.8144 57.3694 28.8511 57.5776L28.2796 57.2143L28.2184 57.002L28.8348 57.0347L29.7328 57.1082Z" fill="white"/>
<path d="M48.8305 61.8001C48.406 61.9756 47.9529 61.7838 47.5447 61.7307C46.9528 61.4858 46.2548 61.3307 45.6507 61.1021V61.0858L44.822 60.947C44.3934 60.7878 43.924 60.7225 43.4464 60.649L42.6994 60.4204C42.03 60.1224 41.1973 59.8816 40.4992 59.6367C39.8094 59.5306 39.2257 59.2734 38.6052 59.0775L37.9521 58.7836L37.9684 58.7305C38.344 58.6938 38.6379 58.8529 38.9644 58.906C39.4379 59.1509 40.0706 59.2162 40.5931 59.3754L41.1319 59.4448C41.6055 59.5877 42.1606 59.6367 42.5851 59.8653C42.9933 59.9673 43.2995 60.2286 43.7607 60.2653C44.3159 60.4735 44.9486 60.5959 45.5037 60.7878L46.5324 60.996C46.9079 61.1021 47.3283 61.1348 47.6753 61.294L48.2141 61.4532L48.8468 61.7103H48.8632L48.8305 61.8001ZM49.7449 61.7675L49.4999 61.4858L48.9448 61.0858C48.5856 61.1021 48.3897 60.8572 48.0304 60.8939C47.7365 60.7551 47.4916 60.5592 47.0834 60.5796C46.4466 60.351 45.6833 60.2449 44.9812 60.1061L44.2301 59.7755L43.4015 59.5142L42.7974 59.2734L42.0136 59.0448C41.0993 58.7468 40.1237 58.6407 39.1767 58.3794C38.7685 58.2611 38.2623 58.2937 37.9031 58.106C36.3234 57.861 34.8702 57.4079 33.3395 57.0895C33.0089 56.8814 32.4864 56.914 32.0986 56.7589L31.7231 56.6895C31.3475 56.6038 30.9067 56.5834 30.5475 56.4609L30.1556 56.3956L29.3065 56.1303C28.9024 55.8854 28.3473 56.0976 28.0003 56.2527L27.9391 56.3385L27.9881 56.6038L28.4248 56.4283L29.0616 56.6038C29.6331 56.6732 30.1393 56.8324 30.6617 56.9875L30.8903 57.0732L31.4455 57.2814C31.9312 57.3345 32.4251 57.2814 32.8293 57.4733C33.3395 57.5467 33.7599 57.7876 34.2988 57.6651L34.4784 57.7876C34.8376 57.8039 35.1152 57.9998 35.3927 58.1223L35.0825 58.2774L34.8376 58.5754L34.8866 58.608C35.3233 58.7631 35.7846 58.8325 36.2377 58.9917C36.7928 59.0775 37.2663 59.3591 37.8541 59.3918C38.7358 59.6897 39.6298 59.8979 40.4992 60.1959C40.9197 60.3347 41.4585 60.4041 41.8504 60.5959L42.1933 60.7225C42.63 60.7878 42.928 61.049 43.3852 61.0694C43.8709 61.2082 44.3608 61.3307 44.8384 61.4858L45.8466 61.7511C46.4834 61.9062 47.1692 62.0287 47.7692 62.2369C48.1937 62.2695 48.5693 62.2206 48.9448 62.343L49.7449 62.0287V61.7675Z" fill="white"/>
<path d="M17.8264 59.4102L17.8754 59.5857L17.7611 59.6877L16.8957 59.6184L16.8794 59.4102L16.9773 59.2714L17.6304 59.1979L17.8264 59.4102Z" fill="white"/>
<path d="M41.6215 65.8293L41.5235 65.7967L40.5765 65.3762L39.7274 64.9395L38.8988 64.5027L37.9681 64.1762C37.5436 63.9802 37.0374 63.8741 36.6292 63.6496C36.2047 63.5271 35.8128 63.3883 35.4904 63.123L34.8046 62.8985C34.4617 62.7597 34.2005 62.5311 33.8249 62.4454L33.3188 62.2699L32.3922 61.8168L31.984 61.5351L32.0983 61.3963C32.6534 61.4535 33.029 61.8005 33.5963 61.8699L33.8086 61.9392C34.2984 62.1515 34.8536 62.2699 35.2904 62.5475C35.67 62.6699 36.0741 62.8291 36.4006 62.9842L37.1844 63.3883L37.6579 63.6496C38.0498 63.8047 38.4906 63.9965 38.8131 64.2251L39.5356 64.5394L40.005 64.7272L40.9847 65.2701L41.6215 65.7395V65.8293ZM43.7237 66.7355L43.2379 66.3559L42.7277 65.8783L41.7031 65.164C41.2622 64.7844 40.6132 64.6088 40.152 64.2251L39.5152 63.8945L39.2376 63.772L38.9151 63.5761C38.5396 63.5598 38.3926 63.2822 38.0824 63.2128L37.413 62.9189L36.5313 62.5638L35.7679 62.2699L35.1312 62.0127C34.7679 61.7637 34.2984 61.6413 33.8739 61.4698C33.4535 61.4168 33.0902 61.2249 32.6983 61.1392L32.6534 61.082L31.6737 61.0494L31.4901 61.2576L31.4452 61.4535H31.4288L31.5268 61.8005L32.0166 62.2372C32.6371 62.4658 33.2208 62.7924 33.8453 63.0006L34.723 63.3679C35.0495 63.6333 35.5843 63.6659 35.9598 63.8578C36.2904 64.1762 36.8578 64.1517 37.2374 64.4333C37.8375 64.5027 38.16 64.9068 38.7682 64.9762L38.8131 65.0252L39.6131 65.4089L40.2009 65.6375C40.7071 65.7804 41.1643 65.9845 41.5235 66.2988C41.899 66.3314 42.1929 66.5437 42.5521 66.6294L42.8909 66.8253L43.6584 66.907L43.7441 66.7886L43.7237 66.7355Z" fill="white"/>
<path d="M26.7807 69.701H26.846L26.944 69.8398C27.2542 69.999 27.5113 70.2072 27.8869 70.2929L28.2665 70.6236L28.2502 70.8195L28.2175 70.8848L28.5727 71.0971C28.9972 71.1665 29.2748 71.3787 29.6503 71.4604L29.9115 71.689L30.0422 71.9706L30.1238 72.0359L30.1891 72.1951L30.2218 72.4564H30.2544C30.879 73.1503 31.2259 73.7014 31.8341 74.3749L31.9811 74.6361H32.0178C32.4464 75.2239 33.2506 75.8607 33.4669 76.5383L33.6465 76.8159C33.9078 77.1833 34.2915 77.767 34.3976 78.2323L34.4466 78.8732L34.4956 79.1181H34.5119L34.5935 79.261L34.6588 79.7467H34.6874L34.8058 80.0243L34.8711 80.1672C34.965 80.5264 35.3895 80.6611 35.5242 81.2652L35.5732 81.3713L35.6344 81.6285L35.6712 81.7714L35.7202 82.4857L35.8793 82.9062L35.9814 83.0776L36.1243 83.2735L36.4876 83.5838L37.0264 84.1267L37.1039 84.2859L37.1692 85.0002H37.1366L37.0876 85.241H37.0713L37.055 85.4859H37.0264L37.0386 85.5186H37.0264V85.5553H37.055L37.0713 86.5309L37.1366 87.4045L37.2182 87.8739L37.2346 88.0861H37.2672V88.176L37.2876 88.4862L37.3162 88.6617H37.3325L37.3162 89.4658L37.4958 89.7067L37.4795 90.0047H37.4468L37.4142 90.2496H37.3815L37.3652 90.3884H37.3489L37.2999 90.6129L37.1203 90.7925L36.9407 90.7027V90.4578H36.9733L37.0264 90.1271L37.0876 89.7965V89.6904H37.1203L37.1039 89.4822L36.6957 89.1148L36.6631 88.9066H36.6957L36.7488 88.7107V88.4494H36.7651V88.2413H36.7937L36.7651 87.927L36.6957 87.7718L36.6468 87.6167L36.5978 87.5432L36.5488 87.3187H36.5161L36.5039 86.7432L36.4876 86.3921H36.5161V85.8166H36.4876V85.192H36.5161V84.8941H36.5488L36.4508 84.3348H36.4182L36.3569 84.2124L36.0263 83.8817L35.6875 83.5348L35.3569 83.1143L35.3283 82.9592H35.2956L35.2793 82.8L35.2426 82.3837L35.116 82.0489L35.0793 81.7877H35.0507L34.9854 81.404L34.9364 81.2979L34.8711 81.1591L34.6099 80.6733H34.5935L34.5119 80.5509L34.3649 80.2692L34.316 80.1835L34.2017 80.0243H34.169L34.1037 79.8529L34.0384 79.6283L34.0221 79.4651H33.9894L33.9404 79.012L33.9078 78.8079L33.8425 78.1262H33.8098L33.7445 77.9507L33.5812 77.62L33.4832 77.4078H33.4669L33.3853 77.2853L33.2424 77.0281H33.2261L33.1404 76.869C32.6464 76.126 32.5199 75.775 31.6709 75.1055L31.2953 74.6035H31.2831L31.1484 74.3749C30.5932 73.4564 29.9809 73.4646 29.6666 72.489L29.3401 71.9869H29.3115L28.7563 71.6726L27.94 71.3053L27.9195 71.1501H27.8869L27.7889 70.9215C27.3807 70.9215 27.3032 70.5746 27.0419 70.4317L26.3235 70.0317L26.1806 69.5786L26.3888 69.4929L26.7807 69.701Z" fill="white"/>
<path d="M17.5818 85.417L17.5492 85.9599H17.5165L17.5002 86.115H17.4839L17.4349 86.7069L17.4675 86.7763H17.4512L17.4349 87.4049H17.4022L17.3369 87.6499V87.7029L17.141 87.7723L16.9287 87.6866L16.7818 87.4049L16.7205 87.3192L16.6348 87.1437L16.5532 86.9151L16.3899 86.6906L16.3736 86.6375L15.9817 86.0987L15.9041 86.0089L15.7368 85.6783L15.7205 85.5232H15.6878L15.5449 85.2782L15.2959 85.2089L15.1653 85.1027L14.9898 84.8578L14.4183 84.3721C14.0264 84.2129 13.8142 83.8455 13.259 83.9026L12.5896 84.1108V84.1598L11.7283 84.1271L11.712 84.0741L11.7283 83.8128L12.3977 83.2046L12.7365 82.9393L13.2427 82.5556L13.6999 82.1025L14.2224 81.682L14.6306 81.3881C14.9898 81.2494 15.2674 81.0044 15.6592 80.882L15.9817 80.935L16.1654 81.1065L16.3409 81.3024L16.4225 81.4779L16.6022 81.682L16.7328 81.8412L16.7981 81.9964L16.8797 82.3147H16.9124L16.9818 82.5066L17.0593 82.727L17.1246 82.923H17.1573L17.2063 83.1638L17.2553 83.2699L17.2879 83.3924L17.4022 84.0904H17.4349L17.4839 84.9476H17.5002L17.5818 85.368L17.5492 85.417H17.5818ZM17.9247 84.9966L17.892 84.5802L17.8104 84.1271H17.8267L17.7614 83.7067H17.7288L17.6961 83.3761H17.6635L17.6308 83.2209L17.5818 82.7678L17.5165 82.5882H17.4839L17.3859 82.2086L17.3369 81.98H17.3042L17.2389 81.682L17.1573 81.5269L17.092 81.3718L17.0267 81.2289L16.9818 81.18L16.3899 80.6371L15.8184 80.2697C15.198 80.0942 14.7898 80.5473 14.4346 80.8289L14.0918 81.1065L13.406 81.4045L13.2264 81.58L13.0509 81.7555L12.7896 81.98L12.459 82.2413C12.1038 82.4168 11.9365 82.7678 11.614 83.0087L11.4671 83.1638C11.1487 83.5067 10.8711 83.8781 10.5527 84.2333V84.3884H10.5854L10.6017 84.4945L10.8303 84.7925C11.4997 84.9639 12.1528 84.7353 12.7692 84.6333L13.4713 84.4945C13.8632 84.3884 13.9938 84.7027 14.251 84.8415L14.6306 85.2252L15.0673 85.5232L15.0878 85.5926H15.1204C15.4061 86.0171 15.8021 86.3967 16.0511 86.8498L16.2103 87.1437H16.2429L16.2756 87.2498L16.3409 87.3682H16.3736L16.4593 87.6131H16.4879L16.6511 87.9805L16.7328 88.0825L17.4022 88.4336L17.7288 88.2622L17.7614 88.2254L17.7737 88.0662L17.8431 87.2988H17.8757V86.9886H17.8431V86.4457H17.8757V86.2375H17.892L17.9043 86.0252H17.941L17.99 85.6783H18.0063L18.0227 85.5232H18.039V85.2946L17.9247 84.9966Z" fill="white"/>
<path d="M29.0966 95.6205L28.9823 95.743L28.5577 95.6695C28.0067 95.245 27.5903 94.6695 27.1372 94.1388L27.0882 94.0857C26.8801 93.8245 26.4066 93.6857 26.0147 93.7388L25.182 93.5632C24.7411 93.4571 24.3982 93.7184 23.99 93.6122L23.8431 93.4081L23.8268 93.3877H23.8431L23.8594 93.0938L23.9737 92.9714L24.1737 92.8122L24.3819 92.653L25.0187 92.0978V92.0611L25.1983 91.8366L25.6881 91.31L25.9984 91.0528C26.2759 90.7345 26.6025 90.4936 27.0882 90.3875L27.6434 90.3344L28.1659 90.7916L28.2638 90.9141L28.3292 91.0161L28.4924 91.4325H28.5251L28.5741 91.5917L28.6231 91.6815L28.7047 91.8529L28.7537 92.1142L28.7863 92.355C28.8965 92.7428 28.7659 93.351 28.8965 93.7184L28.9496 94H28.9823L29.0272 94.8001H29.0476L29.0802 95.2164L29.1292 95.4654L29.0966 95.6205ZM29.6354 95.4818L29.566 94.8001L29.5374 94.4694H29.5537L29.5048 94.2408L29.4884 94.1715L29.3415 93.4898H29.3252V93.4081H29.3415V92.8652L29.3047 92.1509H29.2762L29.2435 91.8366L29.1945 91.7141L29.1292 91.5386H29.0966L29.0639 91.3263L29.0149 91.2447L28.9496 91.1018H28.9333L28.8843 90.9998L28.7374 90.8406L28.4108 90.4038L27.725 89.7956L27.2352 89.6895C26.7494 89.5833 26.5372 89.9507 26.1453 90.0568V90.0732L25.6228 90.4569L24.8064 91.261L24.7248 91.3998V91.4692L24.6595 91.5917L24.5942 91.7141L24.1043 92.306L23.6512 92.6734L23.4349 92.9877L23.3573 93.1428L23.1124 93.4408V93.6857L23.2063 93.8245C23.4676 94.1225 24.0717 94.2776 24.5289 94.1225L25.1003 94.1388L26.0269 94.1715L26.0433 93.9837H26.08L26.0963 94.1388H26.0637L26.1127 94.2776H26.2106L26.8107 94.4858V94.5184L27.0882 94.7674L27.1576 94.9062L27.4352 95.2899L27.4964 95.3756L27.7577 95.7267H27.7903L28.0679 96.0043L28.8516 96.2288L29.5211 96.1063L29.6354 95.8818H29.668V95.4818H29.6354Z" fill="white"/>
<path d="M81.4176 55.4159L81.434 55.5546L81.5483 56.1833L81.5972 56.3955L81.6299 56.7058H81.6626L81.7442 57.0364H81.7769L81.8095 57.3874H81.8422L81.8748 57.5956H81.9075L81.9238 57.7344L82.0708 58.2773H82.0871L82.1034 58.4855L82.1687 58.8855H82.2014L82.234 59.1631H82.6994L82.6871 58.9386H82.6545L82.6422 58.7794L82.5932 58.4855H82.5565L82.5116 58.2773H82.4953L82.43 58.065L82.381 57.8405L82.3483 57.4568H82.3157L82.2626 57.2487H82.2504L82.185 57.0201L82.1687 56.7956L82.1197 56.7058L82.0014 56.0975L81.9891 55.8853H81.9565L81.9238 55.6608L81.8748 55.5383L81.8095 55.3669H81.7769L81.7442 55.1383H81.7115L81.6626 54.8893L81.5319 54.5791L81.4666 54.3709H81.434L81.3523 54.1096L81.287 53.9668L81.2217 53.828L81.1401 53.6361H81.1237L81.0421 53.2524H81.0094L80.9278 52.9055L80.8625 52.7095L80.7972 52.5871H80.7645L80.687 52.3462L80.6176 52.1911L80.5033 51.8931L80.438 51.7176H80.4094L80.3237 51.3502L80.2584 51.1951H80.2257L80.1645 50.9502H80.1318L80.0461 50.6196L79.9808 50.4971L79.9155 50.3583H79.8869L79.8012 50.1134L79.74 49.8889L79.6706 49.7134L79.5399 49.3787L79.4787 49.1909L79.3807 48.9419H79.3481L79.3318 48.7704L79.2787 48.5786L79.2011 48.2112H79.1807L79.1317 47.9541L79.0868 47.8642L79.0338 47.7091H79.0011L78.9562 47.4438H78.9399L78.9032 47.305L78.8583 47.0601L78.7929 46.8683H78.7562L78.6787 46.607L78.6093 46.4519L78.348 46.0315L78.1562 45.8069L77.8786 45.4028L77.9112 45.0926L77.9561 44.8803H77.9766L77.9561 44.6558L77.7969 44.2681L77.7316 44.0966H77.699L77.6663 43.9905H77.6337L77.552 43.8354H77.5194L77.4867 43.7292H77.4541L77.3398 43.5211C76.6336 42.57 76.2499 41.6801 75.6947 40.7127L75.5315 40.378H75.4947L75.3478 40.1371C74.9967 39.7044 74.6783 39.1983 74.2089 38.8962L73.7844 38.5492L73.1966 38.7574L73.2946 39.0391L73.9313 39.4064L74.6171 39.9779L74.9273 40.2963L75.3804 40.7494L75.2335 40.9372L74.9927 41.1821L74.8947 41.2841L74.8457 41.3413L74.8947 41.5127L74.9437 41.5699L75.609 41.8107V41.8434H75.6417C76.0866 42.3781 76.4826 42.9577 76.8826 43.5374L76.9479 43.6925H76.9806L77.2255 44.0966V44.2885H77.1928L77.1642 44.517H77.1275L76.9479 44.7783L76.9152 44.811L76.9316 44.8967L77.1438 45.2804L77.503 45.6518L77.5194 45.7008L77.9929 46.2437L78.0745 46.4152H78.1072L78.2705 46.8193L78.348 46.9213L78.4337 47.1826H78.4664L78.5154 47.4275L78.548 47.6887L78.6093 47.9867L78.695 48.1418L78.7929 48.3337H78.8093L78.8583 48.5459H78.8868L78.9399 48.8929H78.9236L78.9562 49.1541H78.9889L79.0338 49.3623L79.0868 49.4685L79.1317 49.7134L79.2011 49.8889L79.295 50.0277L79.3807 50.2359H79.4093L79.4787 50.5298C79.6297 50.9502 79.8583 51.3543 80.0339 51.8033L80.0788 52.085H80.1114L80.1645 52.3299L80.2584 52.7095H80.2951L80.3237 52.9544H80.3563L80.438 53.2524H80.4706L80.54 53.4443L80.6012 53.5831L80.687 53.779L80.7482 53.9504H80.7809L80.9482 54.2974L81.0421 54.5627L81.1074 54.7178H81.1401L81.238 54.9954L81.3033 55.1546L81.385 55.4159H81.4176Z" fill="white"/>
<path d="M31.8369 22.5202V22.6957H31.8042L31.7879 22.8508H31.7716L31.7226 23.0223L31.6246 23.1447L31.3471 23.4631L30.7266 23.2509L30.547 23.0223L30.4531 22.9243L30.3837 22.7488L30.3347 22.6426L30.2694 22.3977H30.3062V22.2222H30.3225L30.3347 21.8385L30.4531 21.6671L30.6123 21.4426L31.2981 21.2793L31.641 21.614L31.7389 21.8957H31.7716L31.8532 22.3283L31.8696 22.5202H31.8369ZM32.2451 22.1161L32.1961 21.6997L32.1308 21.5813L32.0002 21.3854L31.9839 21.3528L31.8369 21.214L31.5757 20.965C31.2981 20.7935 30.9062 20.9854 30.547 20.8997L30.2531 21.1242L30.0898 21.3364L29.9306 21.6997H29.9143L29.8612 21.9283H29.8286V22.2753H29.8612L29.9143 22.7488H29.9306L30.0123 23.1284L30.0735 23.3039H30.1062L30.2205 23.5652L30.547 23.6223L31.5593 23.7244L31.7389 23.5815L31.9839 23.2345L32.0492 23.1284V23.0957L32.2288 22.7488H32.2614L32.2451 22.1161Z" fill="white"/>
<path d="M58.1269 25.7818V25.7981L57.8657 25.5369L57.7514 25.4349L57.4738 25.0675L57.4575 25.0144L56.9513 24.5409L56.4819 24.145L55.9104 23.6347L55.8125 23.4959H55.7798L55.7635 23.4469L55.6655 23.2877L56.3349 23.6021C56.935 24.3001 57.482 24.5368 58.0126 25.1165L58.0943 25.3614H58.1269L58.1596 25.7492L58.1269 25.7818ZM57.7351 27.4922L57.5391 27.4432L57.5718 27.3534L57.833 27.2636L57.8494 27.2962L57.7351 27.4922ZM44.1993 25.5206L44.0973 25.2797L44.5749 25.1001L44.6361 25.4349L44.1993 25.5206ZM40.9827 25.7655L40.8358 25.9737L40.1215 26.4472L39.0601 26.8635C38.4438 26.9656 38.0192 27.2799 37.46 27.4595L36.6436 27.684L35.7334 28.1902L35.5211 28.3085C34.9374 28.431 34.4108 28.6759 33.974 28.9739L32.9617 29.4107C32.1494 29.9577 31.3697 30.5659 30.8064 31.3986L30.5983 31.6231L29.9125 31.3986L29.7288 31.1047L29.6676 30.9618L29.4512 30.7006L29.4227 30.5944H29.39L29.2267 30.3536L29.0798 30.076L28.9981 29.8638L28.8675 29.6229L28.8185 29.4107H28.7859L28.7206 29.2351L28.7042 29.1127H28.6716L28.6226 28.8351L28.5736 28.5535H28.541L28.5246 28.3085L28.5083 27.4922L28.541 27.2309L28.5083 26.9003V26.288H28.5246L28.5736 26.0798V25.4512H28.541V25.0307H28.5736L28.5246 24.6634H28.5083L28.4593 24.4062H28.4267V24.0552L28.541 23.9694L28.9287 23.7735L28.9981 23.6714L29.0961 23.5327V23.2184H29.1451V23.0592H29.1777L29.19 22.7448H29.2104L29.19 22.3816L29.0798 21.8427L28.8512 21.5611L28.5083 21.4386V21.161H28.5246L28.541 20.9692H28.5736L28.6063 20.7406H28.6389L29.0308 20.063L29.0961 19.9079L29.1777 19.8018L29.3206 19.5364L29.4227 19.4303L29.4512 19.2589H29.488L29.439 19.0139L29.39 18.9445L29.292 18.7894L29.2104 18.6139H29.2267V18.4915H29.2431C29.2104 18.0384 29.3206 17.6383 29.2431 17.2016L29.2757 17.1852L29.2594 17.0954H29.2757L29.2431 16.626H29.2104L29.1777 16.3648H29.1451L29.0798 16.0505L29.0634 15.9117H29.0308L28.9981 15.6463H28.9655L28.9492 15.2667C28.8512 14.883 28.9165 14.3075 28.9002 13.834L28.9287 13.2584H28.9492L28.9981 13.1033V12.5073H29.0308L29.0798 12.1604H29.0961V11.8787L29.1614 11.846L29.292 11.9522C29.5084 12.4787 29.7288 13.0012 30.0268 13.4829L30.1533 13.9197H30.1737L30.2513 14.2013H30.2839L30.3533 14.3401L30.3656 14.4136L30.3982 14.6544L30.4146 14.6708H30.3982V15.1769H30.3656L30.3207 15.5647L30.3533 15.581H30.3207L30.3533 15.5974H30.3207V15.7198H30.3533V15.7688H30.3207V16.1158H30.3044L30.2839 16.4872H30.2513L30.2839 17.0464H30.2513V17.3567H30.2227L30.2064 18.0016H30.1901V18.4751H30.2227L30.3207 18.5772L30.6595 18.2629V18.1976H30.6758V17.8098L30.7289 17.2179V17.0628H30.7452L30.7289 16.5933V16.328H30.7452L30.7575 15.9933H30.7901L30.8432 15.6831V15.3157H30.8595L30.8758 14.8299H30.8922L30.8758 14.8095H30.8922L30.9371 13.9033H30.9534L31.0065 13.589V13.4502H31.035L31.084 13.2053H31.1003L31.1493 12.9441H31.1657L31.2146 12.5441H31.2514V11.9848H31.2146V11.7399H31.2514L31.235 11.7236H31.2514L31.2799 11.4787H31.3126L31.3453 11.197H31.3779L31.4269 10.9725H31.4432L31.4922 10.7847L31.5738 10.7113L31.8677 11.0786L31.9167 11.2542L32.0147 11.4093L32.08 11.5317L32.1616 11.7971H32.178L32.2596 11.9522L32.3086 12.1277L32.3576 12.2502L32.4066 12.5604H32.4229L32.4882 12.7196L32.5372 12.7849L32.6025 12.9441L32.6841 13.2053H32.7168L32.7494 13.4013H32.7821L32.8597 13.6054L33.027 13.887L33.0923 14.0789L33.1087 14.234H33.1413L33.174 14.5687H33.2066L33.2393 15.0708C33.2679 15.6014 33.2964 16.2137 33.6597 16.626L33.9577 16.9403C34.2149 17.2342 34.4761 17.5159 34.9659 17.622L35.6517 18.0751L36.1252 18.4915L36.2395 18.716H36.2722L36.3375 18.8384C36.6151 19.3446 36.7579 19.8426 37.0886 20.2875L37.2518 20.459C38.1825 22.2632 37.807 21.3692 39.0275 22.6061L39.2071 22.8714L39.5173 23.4796H39.5336L39.6153 23.7245L39.6806 23.9694H39.7133L39.7949 24.2837H39.8275L39.8929 24.4225L40.0235 24.6634L40.0725 24.7695L40.0888 24.8226L40.9827 25.2552L41.0685 25.6063L40.9827 25.7655ZM28.296 23.4959L28.2144 23.3571L28.1654 22.7448L28.1981 22.4836H28.2144L28.2675 22.2754L28.394 22.0632L28.541 21.8754L28.6063 21.9652L28.6879 22.0632L28.394 22.6224L28.5246 22.802L28.6716 22.9367L28.7532 22.9938L28.7369 23.1979H28.7042L28.5573 23.4102L28.296 23.4959ZM4.37174 76.5735L4.99219 76.1572C5.42896 75.8918 5.90655 75.6632 6.34332 75.3857L6.60456 75.5653L6.62089 75.6837L6.65355 76.051L6.72294 76.5572H6.73518V77.0797H6.72294L6.6862 77.7246L6.72294 77.8838H6.73518L6.80049 78.1614L6.81682 78.3859H6.84948L6.86581 79.2268L6.93112 79.9248L6.99643 80.4595L7.01276 80.484H6.99643L7.02909 80.533H6.99643L7.01276 80.5657H6.99643L6.96377 80.831L6.88214 80.9167L6.76784 80.9004L6.52292 80.533L6.49027 80.4595L6.24535 80.0064L6.0535 79.7819L5.90655 79.4717H5.88614L5.73919 79.2268L5.66163 79.1533C5.53101 78.8798 5.13914 78.8553 4.77585 78.8798C4.32275 78.9288 3.97987 79.1002 3.55534 79.2064L3.01653 79.488L2.20014 79.8881L1.97155 79.835L1.93889 79.6962H1.95522L2.00829 79.3819L2.08584 79.2064L2.15115 79.1002V78.9615L2.25321 78.8553L2.36342 78.5451H2.38383L2.42873 78.3859C3.40023 77.0225 3.04918 78.0104 3.91456 76.9572L4.37174 76.5735ZM49.2201 23.5123L49.2732 23.4796L49.4977 23.3041H50.1671V23.4102L49.9589 23.5857L49.2201 23.6919V23.5123ZM75.1691 39.1951C74.765 38.8277 74.3853 38.4277 74.0792 38.0073L73.8628 37.3297L73.6179 37.1337L73.524 36.9623L73.4424 36.6153L72.8056 35.7581C72.4178 35.4805 72.2178 35.0111 71.7647 34.7988L71.2259 34.3621L71.1116 34.1906L71.1565 34.1049L71.2545 33.9416V33.6845L70.5728 33.1416L70.2258 32.7905L69.3645 32.0803C68.9563 31.8843 68.5645 31.6598 68.0746 31.6598C67.6338 31.468 67.1113 31.4149 66.7031 31.1373L65.8418 30.7332L65.0091 30.1985L64.6662 29.9168L64.6172 29.6719L65.5316 29.8801L66.0867 29.8474L66.1194 29.6229L66.0051 29.4637L65.2867 29.2719L64.5356 29.1658L63.9029 28.6759L64.0498 28.5698L65.1111 28.7657L65.4989 28.8351C65.8581 28.9208 66.2174 29.0964 66.6092 29.0474L67.2093 28.8678L67.1276 28.7127C66.3112 28.6433 65.6295 28.2596 64.8458 28.1575L64.0784 27.8554L64.4417 27.6636C64.9111 27.6146 65.3193 27.7697 65.7438 27.7697C66.5276 27.8554 67.2093 28.1167 67.895 28.4147L68.7441 28.8188L69.0053 28.6759V28.3983L68.7931 28.2228L68.0746 27.684C67.6501 27.7697 67.4419 27.337 67.0011 27.4187C66.3316 27.337 65.6785 27.1248 64.9805 27.1942L64.1641 27.0717L64.0498 26.9166L64.1641 26.8105L64.8295 26.7615C65.1887 26.7043 65.5479 26.7043 65.9234 26.6717C66.4786 26.586 67.1276 26.6186 67.6828 26.7247L67.7807 26.6554V26.4798C67.0337 26.1492 66.1847 26.341 65.3683 26.2676L64.3886 26.3247L64.2907 26.2023L65.0091 25.7981C65.4336 25.5573 65.9888 25.5206 66.3806 25.2063C66.7725 25.0307 67.2256 25.0144 67.6501 24.9818L68.4828 24.3858L68.5481 24.2674L68.7645 23.8633L68.94 23.5694L68.989 23.2551H69.0053L69.0217 23.0265L69.038 22.8183L69.087 22.2591L69.1033 21.6999L69.1523 21.6835L69.1033 21.3162L69.1523 21.108V20.41L69.1196 20.3773C69.1033 20.0263 69.1196 19.5038 69.1033 19.0507L69.1849 18.8384L69.1523 18.4751L69.1849 17.8261L69.2176 17.373L69.2502 17.3567C69.2502 16.9199 69.2666 16.5199 69.2829 16.0994L69.2502 15.9117C69.1359 15.3075 69.2298 13.6584 69.1033 12.9645L69.038 12.5767C69.0706 12.193 68.9727 11.8787 69.0053 11.495L68.94 11.3399L68.9727 10.9562L68.94 10.9398L68.9074 10.2255L68.8584 10.0867L68.7931 9.96426V9.56015L68.7645 9.54382L68.7114 9.03358L68.5971 8.79275L68.5645 8.4417L68.5155 8.07841L68.4828 7.62531V6.73544L68.4338 6.71912L68.4665 6.68237L68.4338 6.66605L68.4665 6.42113H68.4502L68.4338 5.84557L68.4012 5.82516L68.3726 5.29044C68.1604 4.17198 68.0991 3.0576 67.7318 1.97589L67.5889 1.52279C67.4093 1.11868 67.3889 0.510468 67.095 0.175751L66.7725 0.000228882L65.903 0.196152L65.8092 0.388008L65.6785 0.526794L65.5479 0.751297L65.4173 0.906418L65.205 1.27788L64.9111 1.86976L64.6336 2.46164L64.4703 2.73921L64.2907 3.06985L64.1805 3.21272L64.0784 3.36783C63.9192 3.78827 63.5722 4.06584 63.3477 4.43322L63.1967 4.69855L62.8742 5.1843C61.7517 7.29466 60.7026 9.4132 59.6128 11.5154L59.4985 11.7236L59.4331 11.9358C58.776 14.8381 57.682 16.724 56.3349 19.3487L56.2982 19.5038L56.1513 19.7446L56.2329 19.9732L56.2982 20.9529C56.5431 21.3325 56.9187 21.6672 57.1962 22.0142L57.5391 22.4673C57.6983 23.0347 58.2453 23.5123 58.1922 24.145V24.3327L57.784 24.1286L57.2452 23.7082C56.935 23.3408 56.4819 23.0428 56.0043 22.851C55.8125 22.6795 55.6492 22.2917 55.2736 22.4673L55.1267 22.7448L54.9797 22.851L54.7512 23.149C55.1879 23.6021 55.8125 23.9164 56.2819 24.3327L56.9187 24.892L57.5391 25.59L58.0779 25.9573L58.1269 26.1288L58.1759 26.3737L58.1269 26.4962L57.9963 26.6023L57.6697 26.4268L57.0166 25.9043L56.5799 25.5042C56.2207 25.2063 55.7798 25.0307 55.4043 24.7368L54.8124 24.8593L55.2043 25.2389C55.5675 25.5573 56.041 25.7124 56.4125 26.0104L56.5268 26.2349L56.3513 26.2023C55.5961 26.1288 54.9144 25.8553 54.147 25.7655C53.7715 25.7818 53.4939 25.5206 53.102 25.5736C52.6489 25.3287 52.0734 25.4675 51.6203 25.2389L51.5509 25.1573L51.3264 25.0307C50.8202 25.1165 50.3304 25.1001 49.812 25.1369L49.465 25.0675L48.8813 24.8022L48.9099 24.4062C48.9752 23.9327 49.5957 24.2266 49.8406 23.9164C50.3508 23.9 50.6896 23.4959 51.1958 23.4959L51.3264 23.2347L50.559 23.149L50.5916 23.0755L50.7386 22.9367L51.5509 22.6224L51.4733 22.4673L51.1305 22.5203L50.5263 22.7653C50.0896 22.7448 49.7099 22.8346 49.2732 22.851L48.9752 22.6591L48.6527 23.1C48.5425 23.3653 48.8323 23.5163 48.5874 24.1613L48.4894 24.9083L47.9955 25.0307C47.4771 25.1369 46.9546 25.1001 46.4485 25.2226L45.6035 25.345L45.4525 24.8022L45.4361 24.4919L45.4892 24.145L45.5178 24.1286L45.4892 23.3939L45.5178 23.2877L45.4892 23.1653L45.5178 22.851L45.6035 22.6959L45.6362 22.4183L45.6647 22.0877L45.6974 21.8427L45.6484 21.6999L45.5668 21.3325L45.4729 21.108L45.4525 20.6549L44.6361 20.112L44.1177 19.712C43.7544 19.0139 43.8115 18.5731 43.9871 17.8261L44.0524 17.671L44.1667 17.4465C44.4157 16.7852 44.6647 16.1403 44.8361 15.4586L44.881 15.1606L45.081 14.2503H45.0973L45.1137 14.0789L45.1749 13.7319C45.4933 12.6828 45.926 11.7073 46.2729 10.6786L46.3668 10.45L46.3995 10.2745C47.3179 7.69061 48.0649 6.97627 49.4038 4.86999L49.9875 4.15565L50.3794 3.78828L50.559 3.95972C50.7753 4.72304 50.9019 5.50677 51.0488 6.27826L51.0162 7.25793L50.9835 7.27426L51.0815 7.48652C51.1794 8.24985 51.2733 9.00909 51.3101 9.77242L51.3264 10.3806C51.4325 10.8786 51.4733 11.0501 51.5509 11.5848L51.6203 11.7726V12.2828L51.653 12.2991C51.6203 12.7522 51.7183 13.1033 51.6856 13.5564L51.7183 13.7972L51.7958 14.0258V14.6544L51.7346 14.9483L51.7183 15.3851L51.6856 15.5239L51.653 15.9606L51.6203 15.9933L51.604 16.4137L51.6203 16.8505L51.653 16.9566L51.7183 17.1118L51.7509 17.6383L51.7958 17.7934L51.8652 17.9486L51.8979 18.2465L51.9591 18.4221L51.9958 19.1731H51.9795L51.9428 19.5201L51.653 20.2181C51.3427 20.6181 50.8855 21.0019 50.2814 20.9855L49.4365 21.3896L49.0119 21.806L48.9752 22.0468L49.0568 22.1693L49.0732 22.4346L49.2568 22.5408C49.612 22.4346 49.9875 22.3816 50.3508 22.2591L50.8855 22.153L51.4733 22.0468L50.6406 21.7856L50.2814 21.806L50.2488 21.6999L51.0652 21.2631C51.4244 21.0345 51.7673 20.7937 52.0734 20.4998L52.2408 20.2018C52.551 19.8834 52.4489 19.1731 52.4367 18.7568V18.4588L52.3877 18.2139L52.3183 17.9486V16.6423L52.2897 16.626L52.204 16.3444V15.283L52.2571 15.2667V14.883L52.2897 14.234L52.2571 14.0421L52.1754 13.7809V12.6298L52.204 12.6134L52.1754 12.4543C52.2612 11.495 51.9958 10.5847 51.9591 9.64995L51.9264 9.38871C51.7142 8.76825 51.9224 8.56824 51.6856 8.07841L51.653 7.65797L51.5713 7.41304C51.6203 7.03342 51.5223 6.71911 51.5509 6.31908L51.506 6.00477C51.3795 4.41689 51.1182 4.50262 50.9182 3.36783L50.8366 3.14333L50.1345 3.127L49.7957 3.50662L49.2568 4.01686L49.2038 4.08218L49.1752 4.27811L49.0732 4.44955L48.8487 4.74753L48.4037 5.46188L48.0649 5.88231C47.4322 6.44562 47.3873 7.12731 46.7587 7.88655L46.726 8.07841L46.6281 8.30291C46.2934 9.42136 45.7015 10.3765 45.4525 11.4256L45.2729 11.7971L45.2443 11.9848L45.1422 12.2297L45.0647 12.3318C44.7096 13.6176 44.3095 13.9401 44.1667 15.4218L44.1177 15.7892L44.0524 15.9117C44.0034 16.9403 42.9747 18.3037 43.3829 19.2589L43.4646 19.4711L43.5625 19.6589L43.7748 20.0263C44.0197 20.4426 44.5585 20.4794 44.9341 20.7774L45.2729 21.059L44.983 21.6305L44.4891 21.4223C43.9871 21.3325 43.6442 20.9692 43.236 20.7569L42.3053 20.4426L41.9502 20.6018L42.3747 20.9692C42.7665 21.0019 43.138 21.1406 43.3829 21.406L43.04 21.7366L42.7951 22.0468L43.7095 22.104C44.134 22.2264 44.6728 22.1366 45.0116 22.4836L44.9341 22.7448L43.9054 22.8346L43.4197 23.0102L43.3503 23.1326L43.9503 23.1L44.8524 23.1326L44.8973 23.4959L44.6891 23.7245C44.281 23.8143 43.8564 23.8633 43.4646 23.9694L43.3503 24.1939L43.5789 24.2674L44.5259 23.9858L44.8647 24.0715V24.4225L44.5422 24.7695L43.8074 25.1369L42.8972 25.5042L42.2277 25.8879L41.8522 25.9206L41.8808 25.5369L41.9134 25.3287L41.8644 25.1001L41.8032 24.9083L41.3297 24.6634L40.497 24.5082L40.4643 24.3491L40.399 24.1082L40.1051 23.3041L40.0561 23.2184L39.9092 22.9367C39.7622 22.4183 39.3377 22.1203 38.9948 21.7529L38.3744 21.2631C37.3212 19.912 37.2927 19.2548 36.4191 18.018L35.6354 17.3036C35.0149 17.0791 34.4108 16.7811 34.023 16.275L33.9904 16.0505L33.9577 15.8219L33.8761 15.5974L33.8597 15.0708L33.774 14.7769V14.7238L33.8067 14.3564L33.7454 14.185L33.6761 14.0421L33.6148 13.7646L33.5291 13.6584L33.4352 13.3115L33.3536 13.2053L33.2515 12.9441L33.076 12.6665L32.9903 12.3889L32.978 12.1604L32.8801 11.9848L32.6025 11.2542L32.3086 10.7439L32.227 10.5031L32.1616 10.2745L32.08 10.1194L31.9494 9.75201L31.8677 9.61729L31.5126 9.5275L31.2799 9.75201C30.8554 10.3725 30.7697 12.5849 30.6146 13.1359L30.4513 13.2053L30.235 12.8257C29.9492 12.1971 29.7451 11.7113 29.5206 11.0786L29.1614 10.6051L28.9002 10.6623L28.8185 10.8868L28.7532 11.2215L28.7042 11.446L28.6389 11.846L28.5736 12.091L28.5246 12.9073L28.492 12.9278V13.3115L28.4267 13.6584V14.4952L28.4593 14.5116L28.4267 14.6177V15.3157L28.4593 15.3361L28.492 15.8749C28.6063 16.2586 28.7124 16.6219 28.8185 17.0097L28.7695 17.373C28.8185 17.8261 28.7206 18.2139 28.7532 18.667L28.7859 18.9445H28.7981V19.4711C27.8429 21.161 28.1368 20.6835 27.8878 22.104L27.8756 22.6428L27.8225 22.6795L27.8756 22.953C27.8838 23.5082 28.0103 24.1694 28.0675 24.7695L28.1368 25.0511C28.1368 25.4512 28.1001 25.6757 28.1164 26.0961L28.0675 26.1125L28.0348 26.3737C27.8838 27.1901 27.8266 28.0228 28.1368 28.8188L28.2675 29.3943H28.2797L28.3777 29.7617L28.6716 30.4556L28.8512 30.823L29.1288 31.3292L28.7042 31.8354L28.345 32.2354L28.0838 32.166L28.0675 32.2191L27.9695 32.166L27.6266 32.4599L27.545 32.166L27.5817 31.8027L27.3368 31.6598L27.0429 32.0966L26.8592 32.5497L26.7612 32.7415C26.0877 33.2599 25.8591 34.2927 25.3285 35.0111L25.1489 35.2519L25.0835 35.4479C24.8713 35.9867 24.5815 36.4724 24.3365 36.9949L24.0753 37.4154L23.961 37.7338L23.8426 37.8889C22.9446 39.2033 22.3935 40.7177 22.165 42.3341L22.0833 42.579L22.0507 43.0852H22.0343L22.0139 43.2607L21.9853 43.4322L21.92 43.5914L21.8874 44.0445L21.8057 44.1996L21.2996 44.9139L20.8424 45.1792L20.2219 45.4568C19.4219 45.5956 18.6749 45.9099 17.9401 46.1712L17.6462 46.3957C17.1237 46.4161 16.8666 46.8161 16.5196 47.0774V47.1304L16.4216 47.2896L16.3931 47.5468L16.2747 47.7754L16.2461 48.3183V48.6489L16.2747 48.8775L16.3237 49.1347L16.3074 49.6082L16.1441 49.9592L15.8379 50.7062L15.7236 51.1756L15.691 51.2491L15.4297 51.792L15.2134 51.7512L14.6623 51.7675V51.7512L14.1888 51.5267L13.552 51.6655L13.5847 51.9104L13.8133 52.0328L14.7072 52.2941L15.3603 52.6084L15.4624 52.8002L15.544 53.1146V53.6901L15.5073 53.8493L15.3971 54.0044C14.9072 54.0697 14.4501 54.2126 13.9929 54.3187C13.4051 54.4738 12.9153 54.7718 12.3438 54.9596L11.4294 55.38L11.4172 55.6086L11.5151 55.8535L12.3438 55.6086L13.3602 55.1229C14.0092 54.9433 14.597 54.58 15.2991 54.5065L15.3971 54.6657L15.4461 54.878L15.3971 55.1392L15.3318 55.2943L15.2991 55.4862L15.2134 55.625L15.1522 55.8862L15.1195 56.1515L15.0542 56.2699L14.9685 56.5311L14.3194 56.9842L14.0745 57.3353L14.9399 57.2455L15.2991 57.5965L15.3318 57.9802L15.3971 58.1558L15.4624 58.3639L15.544 58.4864L15.5767 58.8497L15.6379 59.0089L15.691 59.2538L15.7522 59.4089L15.8216 59.6212L15.9359 59.7967L15.8543 60.0416C15.5277 60.1967 15.1685 60.3518 14.7766 60.3886L14.1725 60.6131L13.9276 60.8254L13.8623 61.1029L13.9276 61.556L13.9766 61.7111L13.9276 61.7275L13.5847 62.201L13.3071 62.7969L13.0826 63.1929L12.6214 63.8256L12.0989 64.1032L11.3682 64.7971L11.1233 65.1318L11.0743 65.2706L11.009 65.4298L10.9069 65.6012L10.2742 66.1441L10.0456 66.5646C9.88237 67.0667 9.31498 67.2585 9.07006 67.6953C8.95168 68.079 8.46185 68.1116 8.29857 68.4464C7.87813 68.7076 7.61689 69.0913 7.24135 69.3852L6.63722 69.8587L6.0535 70.1363L6.29433 70.5567L5.93921 71.0466C5.54734 71.2874 5.26977 71.5854 5.02485 71.9364L4.74728 72.2834L4.77585 72.4385L4.90647 72.8753L4.84524 72.9814L4.25336 73.659L4.07784 73.9039L3.80026 74.357L3.75128 74.6019L3.83292 74.7407L3.80026 75.0387L3.45738 75.5245L3.26145 75.8428L3.08184 76.1L3.06551 76.3449L2.98387 76.6592L2.88591 76.9736L2.26953 77.6879L2.13891 77.8838L2.06952 78.0553L1.58376 78.7533L1.40008 79.1737L1.3715 79.2758L1.32252 79.537L1.25313 79.7125L1.1919 79.9575L1.13883 80.3942L1.1225 81.0188L1.0776 81.1249L1.13883 81.3535L0.730638 81.8596C0.465311 82.7454 0.379589 82.5495 0.13059 83.1659L0.191821 83.272C0.469393 83.7659 0.269377 85.064 0.0162961 85.5742L-3.05176e-05 85.9049L0.163247 86.011L0.310198 85.7497L0.375509 85.4354L0.408162 85.1538L0.489803 85.015L0.555113 84.8272L0.620424 84.5456L0.58777 83.9169L0.653081 83.7251L0.730638 83.4965L0.832685 83.2883L1.04495 83.0108V82.7658L1.02454 82.5413L1.0776 82.3821L1.64499 81.6841L2.00829 81.3004L2.10217 81.1412V81.0759L1.8246 80.6024L1.92257 80.533C2.34709 80.3942 2.73896 80.1126 3.21246 80.0799C3.66964 79.8677 4.1758 79.3982 4.73095 79.6962L5.55958 80.3575L5.73919 80.6228L5.80858 80.8106L5.86981 80.9861L6.47394 81.5617L7.06174 81.4759L7.35564 81.0024L7.42095 80.7616L7.48626 80.533L7.5679 80.3412V79.1737L7.51484 78.8553L7.48626 78.6145L7.45361 78.1777H7.42095V75.8428L7.35564 75.6306L7.274 75.4387L7.24135 75.2673L6.9801 74.7938L6.00043 74.9856L5.83715 75.1285L4.99219 75.5816C4.64523 75.753 4.40031 76.1204 4.01252 76.1408L4.15948 75.7204L4.2901 75.3693L4.35541 75.1081L4.38398 74.7775C4.74727 74.553 5.00852 74.2019 5.38406 73.9774L5.44529 73.8182L5.09016 73.7815L4.84524 73.8345L4.93913 73.6794L5.55958 72.9814C6.03309 72.7528 6.21269 72.3324 6.57191 72.0221L6.70253 71.5323L6.29433 71.4997V71.4099C7.76384 70.1363 7.60872 69.3199 9.7844 67.9239L10.6661 67.034C11.0253 67.0177 11.0743 66.6503 11.3519 66.5238C11.854 65.9155 12.7234 65.7604 13.3888 65.2706C13.9929 64.9032 14.6787 64.7318 15.3971 64.593L16.4747 64.3113L17.0095 64.2052L17.0421 64.593L17.2911 64.6746C17.7932 64.9563 18.381 65.2012 19.0137 65.1481C19.377 65.0094 19.9607 64.94 20.2383 65.2339C20.6465 65.34 20.8587 65.687 21.2996 65.7441L21.9853 65.9727L22.6548 66.4911L23.1895 66.9605C23.4834 67.2952 23.9733 67.4136 24.2345 67.8014L24.8754 68.2178L25.4428 68.5321C25.851 68.7239 26.1285 69.075 26.5694 69.2301L26.9123 69.1566L26.7 68.7076L25.8836 68.2872L24.8754 67.6585C24.4468 67.4136 24.0222 67.1197 23.6998 66.8054L22.9283 66.1441L22.0833 65.5318C21.6588 65.4625 21.2833 65.2175 20.8751 65.0951C20.5526 64.993 20.2913 64.7644 19.928 64.695L19.1157 64.6583L18.3973 64.344C18.0218 64.4338 18.0054 64.0134 17.6789 63.9644C17.2707 63.9276 16.8298 63.8746 16.4053 63.9276C15.9686 63.8746 15.6747 64.295 15.246 64.1032C14.8909 64.1195 14.5807 64.295 14.2378 64.3113C13.7806 64.4869 13.3602 64.6583 12.9683 64.94L12.3315 65.2706L11.6458 65.4298L11.6784 65.2012C11.9233 64.7481 12.4622 64.6093 12.8173 64.2215L12.9683 64.2052L13.4051 63.7031L13.4704 63.4909L13.552 63.3725L13.8459 63.0214L14.2868 62.3765L14.8746 61.8173L15.0215 61.4662L15.246 61.1356L15.3318 60.8254C15.6379 60.5437 16.1155 60.56 16.491 60.4212L16.5686 60.2825L16.3237 59.8988L16.4747 59.4252C16.1196 58.1027 15.4665 57.4986 15.6379 55.8168L15.7236 55.6576L15.7522 55.4168L15.8216 55.2249L15.8543 55.0004L15.9359 54.8045V54.4249L16.0012 54.1269L16.0665 53.584L16.1441 53.4125V53.0084L16.0665 52.8002L16.0012 52.5553L16.0298 52.3431L16.0992 52.0124L16.0828 51.8083H16.0992L16.1155 51.5961C16.5808 50.7838 16.3278 50.8899 16.6217 50.3062L17.0299 49.8L16.9156 49.449L16.8135 49.0326L16.7686 48.1223L17.1727 47.1508L17.7442 46.9957L18.4749 47.408C18.9525 47.4978 19.181 47.9509 19.5076 48.1795L19.5892 48.3183L19.8301 48.7183L19.9444 49.0122L19.8995 49.0857V49.6082L20.0464 49.7674L20.4669 49.6286V48.9101L20.3689 48.6489L20.2913 48.4203L20.1444 48.1427C19.8831 47.8284 19.6056 47.4978 19.2464 47.2692L19.0137 47.0774L18.3647 46.6447L19.0014 46.2406L19.2464 46.3303L19.2749 46.5018C19.6546 46.9059 20.0138 46.2242 20.4669 46.3467L20.5812 46.5753V46.7671L20.924 46.7834L22.0139 46.8528C22.4752 47.1141 21.7568 47.1998 21.8384 47.5141L22.7691 47.8121L22.7201 47.9672L22.6221 48.1223L22.6548 48.2815L23.2058 48.4775L23.3895 48.3183L22.9609 47.9019L23.0467 47.5876L23.0752 47.5672L23.0467 47.4488L22.4752 46.661L22.3119 46.4365L21.7731 46.2406L21.3812 45.9262L21.4465 45.4405L22.3119 44.7425L22.5527 44.8649L22.7977 44.7751L22.8303 44.6731L22.8671 44.0771L22.9283 43.9751L22.9609 43.6812L23.0467 43.3628L23.0752 43.1056L23.1446 42.9995L23.1895 42.7178L23.2589 42.5464L23.2058 42.2647L22.9609 42.4403L22.8997 42.5954L22.8671 42.8403L22.7977 43.0321L22.6548 43.6608L22.5731 43.8853L22.5527 43.7302L22.6221 43.522V43.0648L22.6548 43.0485L22.6834 42.3341L22.7528 42.1259C22.9609 41.3585 22.9569 40.485 23.4385 39.8401L23.7283 39.2808L24.0549 38.4971C24.7243 37.346 25.3856 35.6846 26.0591 34.607L26.3081 34.1376L26.5204 33.9253L26.5041 34.3621L26.7 34.5172L26.8918 34.1376L27.1368 33.5457L27.2347 33.3498L27.3531 33.1783L27.598 33.0926L27.8389 33.3661L28.2144 33.1946L28.8185 32.4109L28.8838 32.3048L28.9492 32.1497L29.4227 31.6802L30.3533 31.8027L30.3982 31.8843L30.484 32.2191L30.9901 31.9905C31.2514 31.5904 31.6228 31.2761 31.9167 30.9087C32.4392 30.4557 32.8801 29.9699 33.5128 29.6229L33.6761 29.6556L34.2679 29.5658C34.6761 29.1862 35.2966 29.0474 35.7497 28.7494C36.0762 28.4514 36.5824 28.3453 36.9906 28.1371C37.3498 27.9616 37.7743 27.9616 38.1131 27.7901C38.7336 27.6309 39.2071 27.2472 39.7786 27.0554C40.2521 26.9656 40.595 26.6349 41.097 26.6554C41.5583 26.5696 41.9828 26.341 42.4522 26.288C42.8972 26.2349 43.3013 26.0104 43.7421 26.0798L44.3585 25.9206C44.7504 25.7328 45.1953 25.7981 45.6362 25.7492C45.9913 25.6267 46.4199 25.643 46.7914 25.5736C47.2812 25.3981 47.722 25.7124 48.2119 25.6594C49.612 25.5042 51.0162 25.7492 52.3346 25.9941C52.8735 26.1492 53.4939 26.0798 54.0327 26.2512L54.4409 26.3084L54.9144 26.3737L55.1593 26.7043L55.1104 26.8839L55.5961 27.337L55.0124 27.6309L54.9961 27.8065C55.3349 28.0351 55.8288 27.8922 56.2329 27.9289L56.9677 27.9779L57.7024 27.9453L57.9473 28.2922L58.2412 28.3453L58.3392 28.1902L58.3718 27.9289L58.4372 27.5248C58.7392 26.6064 58.5923 25.345 58.7637 24.5082V23.7245C56.6738 19.2752 56.0206 21.7448 58.2249 17.1689L58.3392 16.8709C58.3637 15.9851 59.2413 15.083 59.2495 14.3564L59.3025 14.0258L59.4168 13.8176L59.4658 13.5033H59.4985L59.5107 13.3604C60.8945 9.17236 63.7763 4.92713 65.8745 1.11868L66.3316 0.510468L66.9643 0.579857L67.0337 1.46564L67.0664 1.48197L67.148 1.77995L67.2419 2.00854L67.3113 2.18407L67.3889 2.44531L67.4256 2.75962L67.4868 3.127L67.5358 3.59642L67.6011 3.85767V4.29443L67.6338 4.3271L67.6828 4.97204H67.7032L67.7318 5.54759C67.842 5.78027 67.9236 6.37623 68.0257 6.52726V7.00077L68.0583 7.01709V8.49884L68.095 8.5315L68.1236 8.76009L68.1889 8.93562L68.242 9.18053L68.3032 9.61729V10.2418L68.3726 10.4174L68.4175 10.7847L68.4828 11.0623L68.5155 11.4256L68.5971 11.5317L68.5481 11.6338L68.5971 12.0216L68.6135 13.0502L68.6624 13.0665L68.6951 14.0258L68.7441 14.4136H68.7645L68.7277 14.4626C68.7114 15.2871 68.9278 16.1525 68.8584 16.675L68.842 17.3934L68.7931 17.4097V17.8098L68.7277 18.0914V18.5772L68.6951 18.5935L68.6624 19.1731L68.6951 19.712V20.708L68.6135 20.9365L68.6624 21.1937V21.6509L68.6135 21.6835V22.2591L68.5971 22.6428L68.5155 22.851L68.4828 23.1979L68.4175 23.4469L68.3032 23.8143C67.993 24.3001 67.3562 24.4756 66.7398 24.4919C66.3806 24.4756 66.1357 24.7532 65.8092 24.8022C65.4336 24.9818 64.9928 25.0144 64.5723 25.1165C64.1478 25.2797 63.7886 25.6063 63.5559 25.9737L63.4784 26.1655C63.5722 28.3739 62.4946 29.3168 62.4824 30.4924L62.6579 30.6516L63.0865 30.3373L63.1641 30.1985L63.2334 29.9862L63.8172 30.1413C64.2907 30.2475 64.6499 30.5087 64.9928 30.7904C65.6785 31.17 66.3112 31.6802 67.095 31.868L67.3889 31.9905C67.7644 32.0435 68.0583 32.2558 68.4338 32.3211C68.9237 32.6558 69.5727 32.7905 69.9646 33.2477L69.9197 33.4722L69.3645 33.562L69.087 33.7702L69.8054 34.1906L70.9483 34.8356C71.581 35.0438 72.026 35.5132 72.3811 35.9663L72.4627 36.1949L72.3321 36.2683C72.0056 36.1459 71.6463 35.9867 71.2708 36.0234L70.9483 36.2479L71.4014 36.4929C72.0382 36.6316 72.6423 36.9459 73.0505 37.3623L73.6873 37.9909L74.271 38.6032L74.7119 39.089L75.1038 39.5257H75.2997L75.1691 39.1951Z" fill="white"/>
<path d="M31.3287 21.9008L31.3941 22.0069L31.4104 22.4763L31.4267 22.7539L31.3941 22.7906L30.9859 22.9131L30.8389 22.807L30.7573 22.6314L30.6103 22.1457L30.7287 22.0069V21.9497L30.9042 21.8681L31.3287 21.9008Z" fill="white"/>
</g>
<defs>
<clipPath id="clip0_5_98">
<rect width="200" height="96.2287" fill="white"/>
</clipPath>
</defs>
</svg>
